<?xml version="1.0" encoding="utf-8"?>
<!-- Generator: Adobe Illustrator 24.0.2, SVG Export Plug-In . SVG Version: 6.00 Build 0)  -->
<svg version="1.1" id="Layer_1" xmlns="http://www.w3.org/2000/svg" xmlns:xlink="http://www.w3.org/1999/xlink" x="0px" y="0px"
	 width="25px" height="20px" viewBox="0 0 25 20" style="enable-background:new 0 0 25 20;" xml:space="preserve">
<style type="text/css">
	.st0{fill:#C63631;}
</style>
<path class="st0" d="M20.8,4.9c0.5-0.8,0.7-1.9,0.4-2.8l0,0C20.8,0.8,19.8,0,18.5,0h-12C5.2,0,4.2,0.8,3.8,2.1c-0.3,1-0.2,2,0.3,2.8
	C4.5,5.6,5.2,6,6,6.2l0.1,0v0.8c0,0.7,0.5,1.3,1.1,1.5l0.1,0v8.3l-0.1,0c-0.6,0.3-1.1,0.9-1.1,1.5v1.2c0,0.2,0.2,0.4,0.4,0.4h12
	c0.2,0,0.4-0.2,0.4-0.4v-1.2c0-0.7-0.5-1.3-1.1-1.5l-0.1,0V8.6l0.1,0c0.6-0.3,1.1-0.9,1.1-1.5v-1l0.2,0C19.8,6,20.4,5.5,20.8,4.9z
	 M18,18.5v0.5h0v0.2H7v-0.7c0-0.4,0.4-0.7,0.7-0.7h9.6C17.7,17.8,18,18.2,18,18.5z M15,10.2c-0.2,0-0.4,0.2-0.4,0.4v6.3H13v-6.3
	c0-0.2-0.2-0.4-0.4-0.4c-0.2,0-0.5,0.2-0.5,0.4v6.3h-1.6v-6.3c0-0.2-0.2-0.4-0.4-0.4c-0.2,0-0.5,0.2-0.5,0.4v6.3H8.1V8.7h8.8v8.3
	h-1.6v-6.3C15.3,10.4,15.1,10.2,15,10.2z M18.1,7.1c0,0.4-0.4,0.7-0.7,0.7H7.7C7.3,7.8,7,7.4,7,7.1V6.2h11.1V7.1z M16.5,5.2l0.2,0.3
	H8.2l0.2-0.3C8.7,4.8,8.8,4.4,8.9,4l0-0.1h7.1v0.2C16.1,4.4,16.2,4.8,16.5,5.2z M18.6,5.3c-0.8,0-1.3-0.5-1.5-0.9
	C17,4,17,3.6,17.3,3.4c0.2-0.2,0.5-0.2,0.7-0.2c0.3,0,0.3,0.3,0.3,0.4c0.1,0.2,0.2,0.3,0.3,0.3c0,0,0.1,0,0.1,0
	C18.9,3.8,19,3.7,19,3.6c0,0,0-0.1,0-0.1c-0.1-0.6-0.5-0.9-0.9-1c-0.5-0.1-1.2,0-1.6,0.4L16.4,3H8.5V2.9h0l0-0.1
	C8,2.4,7.4,2.3,6.9,2.4c-0.5,0.1-0.9,0.5-1,1c0,0.2,0.2,0.4,0.4,0.5c0,0,0.1,0.1,0.2,0c0.1-0.1,0.2-0.2,0.2-0.3
	c0-0.1,0.1-0.2,0.1-0.2V3.2l0.2,0c0.2,0,0.5,0,0.7,0.2C8,3.6,8,4,7.9,4.4C7.7,4.8,7.1,5.3,6.4,5.3C5.8,5.3,5.3,5,4.9,4.5
	C4.4,3.9,4.3,3.1,4.5,2.4c0.3-0.9,1.1-1.5,1.9-1.5h12c0.9,0,1.6,0.6,1.9,1.5c0.2,0.8,0,1.7-0.5,2.3C19.6,5.1,19.2,5.3,18.6,5.3z"/>
</svg>
