<?xml version="1.0" encoding="utf-8"?>
<!-- Generator: Adobe Illustrator 24.0.2, SVG Export Plug-In . SVG Version: 6.00 Build 0)  -->
<svg version="1.1" id="Layer_1" xmlns="http://www.w3.org/2000/svg" xmlns:xlink="http://www.w3.org/1999/xlink" x="0px" y="0px"
	 width="25px" height="20px" viewBox="0 0 25 20" style="enable-background:new 0 0 25 20;" xml:space="preserve">
<style type="text/css">
	.st0{fill:#C63631;}
</style>
<g>
	<path class="st0" d="M22.8,8.5L22.8,8.5L22.8,8.5l-0.9-3.4l0.1,0c0.2,0,0.3-0.2,0.3-0.4V4.1c0-1.1-0.9-2-2-2h-3.8V1
		c0-0.5-0.4-1-1-1H2.1c-0.5,0-1,0.4-1,1v9c0,0.2,0.2,0.4,0.4,0.4S2,10.2,2,10V1c0-0.1,0-0.1,0.1-0.1h13.5c0.1,0,0.1,0,0.1,0.1v9
		c0,0.2,0.2,0.4,0.4,0.4c0.2,0,0.4-0.2,0.4-0.4V9.4h6c0.7,0,1.4,0.5,1.6,1.2l0,0.1h-1.7c-0.2,0-0.4,0.2-0.4,0.4v1.1
		c0,0.8,0.7,1.5,1.5,1.5h0.6V16h-1.4l0-0.1c-0.4-1.2-1.6-2.1-2.9-2.1c-1.3,0-2.5,0.8-2.9,2.1l0,0.1h-0.4v-3.8c0-0.2-0.2-0.4-0.4-0.4
		c-0.2,0-0.4,0.2-0.4,0.4V16H9.9l0-0.1c-0.4-1.2-1.6-2.1-2.9-2.1c-1.3,0-2.5,0.8-2.9,2.1L4,16H2.1C2,16,2,15.9,2,15.9v-1.2h1.2
		c0.2,0,0.4-0.2,0.4-0.4c0-0.2-0.2-0.4-0.4-0.4H0.4C0.2,13.8,0,14,0,14.3c0,0.2,0.2,0.4,0.4,0.4h0.7v1.2c0,0.5,0.4,1,1,1h1.8l0,0.1
		c0,1.7,1.4,3.1,3.1,3.1s3.1-1.4,3.1-3.1l0-0.1h6.7l0,0.1c0,1.7,1.4,3.1,3.1,3.1c1.7,0,3.1-1.4,3.1-3.1l0-0.1h1.7
		c0.2,0,0.4-0.2,0.4-0.4v-5.3C25,9.8,24.1,8.7,22.8,8.5z M16.5,3h3.8c0.6,0,1.2,0.5,1.2,1.2v0.1h-5V3z M16.5,8.5V5.1h4.6l0,0.1
		l0.8,3.4H16.5z M6.9,19.2c-1.2,0-2.2-1-2.2-2.2c0-1.2,1-2.2,2.2-2.2c1.2,0,2.2,1,2.2,2.2C9.2,18.2,8.2,19.2,6.9,19.2z M19.8,19.2
		c-1.2,0-2.2-1-2.2-2.2c0-1.2,1-2.2,2.2-2.2c1.2,0,2.2,1,2.2,2.2C22,18.2,21,19.2,19.8,19.2z M24.2,12.8h-0.6
		c-0.4,0-0.6-0.3-0.6-0.6v-0.6h1.3V12.8z"/>
	<path class="st0" d="M6.9,16c-0.5,0-1,0.4-1,1c0,0.5,0.4,1,1,1c0.5,0,1-0.4,1-1C7.9,16.4,7.5,16,6.9,16z"/>
	<path class="st0" d="M19.8,16c-0.5,0-1,0.4-1,1c0,0.5,0.4,1,1,1c0.5,0,1-0.4,1-1C20.7,16.4,20.3,16,19.8,16z"/>
	<path class="st0" d="M10.8,14.3c0,0.2,0.2,0.4,0.4,0.4h2.8c0.2,0,0.4-0.2,0.4-0.4c0-0.2-0.2-0.4-0.4-0.4h-2.8
		C11,13.8,10.8,14,10.8,14.3z"/>
	<path class="st0" d="M1.5,12.6h4.4c0.2,0,0.4-0.2,0.4-0.4c0-0.2-0.2-0.4-0.4-0.4H1.5c-0.2,0-0.4,0.2-0.4,0.4
		C1.1,12.4,1.2,12.6,1.5,12.6z"/>
	<path class="st0" d="M12.5,4.9L8,9.4L5.7,7C5.6,7,5.5,6.9,5.4,6.9c0,0,0,0,0,0C5.3,6.9,5.1,7,5.1,7c-0.2,0.2-0.2,0.4,0,0.6l2.7,2.7
		c0.2,0.2,0.4,0.2,0.6,0l4.8-4.8c0.2-0.2,0.2-0.4,0-0.6C13,4.7,12.7,4.7,12.5,4.9z"/>
</g>
</svg>
