<?xml version="1.0" encoding="utf-8"?>
<!-- Generator: Adobe Illustrator 24.0.2, SVG Export Plug-In . SVG Version: 6.00 Build 0)  -->
<svg version="1.1" id="Layer_1" xmlns="http://www.w3.org/2000/svg" xmlns:xlink="http://www.w3.org/1999/xlink" x="0px" y="0px"
	 width="25px" height="20px" viewBox="0 0 25 20" style="enable-background:new 0 0 25 20;" xml:space="preserve">
<style type="text/css">
	.st0{fill:#C63631;}
</style>
<g>
	<path class="st0" d="M10.9,12.3h9.3c0.3,0,0.5-0.2,0.5-0.5V4.5c0-0.2-0.1-0.3-0.2-0.4l-4.7-3.6c0,0-0.1-0.1-0.2-0.1
		c-0.1,0-0.2,0-0.3,0.1l-4.7,3.6c-0.1,0.1-0.2,0.3-0.2,0.4v7.3C10.5,12.1,10.6,12.3,10.9,12.3z M16.7,11.4h-2.3V7.1h2.3V11.4z
		 M11.4,4.8l4.1-3.3l4.1,3.3v6.5h-2.1V6.5c0-0.3-0.2-0.5-0.5-0.5h-3.1c-0.3,0-0.5,0.2-0.5,0.5v4.7h-2.1V4.8z"/>
	<path class="st0" d="M22,14.7h-3.4c-0.3,0-0.5,0.2-0.5,0.5c0,0.3,0.2,0.5,0.5,0.5h2.9v3.4h-1.3v-0.7c0-0.3-0.2-0.5-0.5-0.5
		c-0.3,0-0.5,0.2-0.5,0.5v0.7h-1.5V18c0-0.3-0.2-0.5-0.5-0.5c-0.3,0-0.5,0.2-0.5,0.5v1.1h-1.5v-0.7c0-0.3-0.2-0.5-0.5-0.5
		s-0.5,0.2-0.5,0.5v0.7H13V18c0-0.3-0.2-0.5-0.5-0.5S12,17.7,12,18v1.1h-1.5v-0.7c0-0.3-0.2-0.5-0.5-0.5c-0.3,0-0.5,0.2-0.5,0.5v0.7
		H8V18c0-0.3-0.2-0.5-0.5-0.5c-0.3,0-0.5,0.2-0.5,0.5v1.1H5.7v-0.7c0-0.3-0.2-0.5-0.5-0.5c-0.3,0-0.5,0.2-0.5,0.5v0.7H3.4v-1.3h0.7
		c0.3,0,0.5-0.2,0.5-0.5s-0.2-0.5-0.5-0.5H3.4v-1.5h1.4c0.3,0,0.5-0.2,0.5-0.5c0-0.3-0.2-0.5-0.5-0.5H3.4v-1.5h0.7
		c0.3,0,0.5-0.2,0.5-0.5c0-0.3-0.2-0.5-0.5-0.5H3.4v-1.4h1.4c0.3,0,0.5-0.2,0.5-0.5c0-0.3-0.2-0.5-0.5-0.5H3.4V8h0.7
		c0.3,0,0.5-0.2,0.5-0.5C4.6,7.2,4.4,7,4.3,7H3.6V5.5h1.4c0.3,0,0.5-0.2,0.5-0.5c0-0.3-0.3-0.5-0.6-0.5H3.4V3.2h0.7
		c0.3,0,0.5-0.2,0.5-0.5c0-0.3-0.2-0.5-0.3-0.5H3.6V0.9h3.2v14.3c0,0.3,0.2,0.5,0.5,0.5h9.9c0.3,0,0.5-0.2,0.5-0.5
		c0-0.3-0.2-0.5-0.5-0.5H7.8V0.5C7.8,0.2,7.6,0,7.3,0H3C2.7,0,2.5,0.2,2.5,0.5v19.1C2.5,19.8,2.7,20,3,20H22c0.3,0,0.5-0.2,0.5-0.5
		v-4.3C22.5,14.9,22.3,14.7,22,14.7z"/>
</g>
</svg>
