<?xml version="1.0" encoding="utf-8"?>
<!-- Generator: Adobe Illustrator 24.0.2, SVG Export Plug-In . SVG Version: 6.00 Build 0)  -->
<svg version="1.1" id="Layer_1" xmlns="http://www.w3.org/2000/svg" xmlns:xlink="http://www.w3.org/1999/xlink" x="0px" y="0px"
	 width="163px" height="100px" viewBox="0 0 163 100" style="enable-background:new 0 0 163 100;" xml:space="preserve">
<style type="text/css">
	.st0{fill:#C63631;}
	.st1{fill-rule:evenodd;clip-rule:evenodd;fill:#FFFFFF;}
</style>
<g>
	<path class="st0" d="M0,98.5c0.8,0,1.5-0.1,2.3-0.1c0.8,0,1.6,0,2.4,0v-0.4c-0.3,0-0.8-0.1-1-0.1c-0.1-0.1-0.2-0.1-0.2-0.3
		c-0.1-0.2-0.1-1.1-0.1-1.4l0-2.7c0-0.1,0-0.6,0-0.8c0.1-0.1,0.2-0.2,0.3-0.2c0,0,0.1,0,0.1,0c0.1,0,0.2,0.1,0.2,0.2
		c0.7,0.9,1.4,1.8,2.1,2.8c0.7,0.9,1.4,1.9,2.1,2.9c0.5,0,0.9-0.1,1.4-0.1l1.4,0l0.3,0v-0.4c-0.2,0-0.5-0.1-0.7-0.2
		c-0.3-0.2-1-1.2-1.2-1.5c-1-1.3-2.1-2.6-3-4l-0.8-1.1l1.5-1.6c0.6-0.7,1.3-1.4,2-2c0.2-0.2,0.6-0.5,0.9-0.7
		c0.2-0.1,0.5-0.1,0.7-0.1l0.3,0v-0.4c-0.4,0-0.9,0-1.3,0c-0.5,0-0.9,0-1.4-0.1l0,0.3l0,0.4l0,0c-0.7,1-1.5,1.9-2.3,2.8
		c-0.7,0.8-1.5,1.7-2.3,2.4l0,0H3.4v-0.1c0-1.4-0.1-3.1,0-4.5c0-0.2,0.1-0.5,0.2-0.7c0.2-0.1,0.8-0.2,1.1-0.2v-0.4
		c-0.8,0-1.6,0-2.4,0c-0.8,0-1.6,0-2.4,0v0.4c0.3,0,0.9,0,1,0.1c0.1,0.1,0.2,0.1,0.2,0.2c0.1,0.2,0.1,1,0.1,1.3c0,0.9,0,1.8,0,2.7
		l0,3.3c0,0.8,0,1.8-0.1,2.6c0,0.2-0.1,0.4-0.1,0.6c0,0.1-0.1,0.1-0.2,0.2c-0.1,0.1-0.7,0.1-1,0.1V98.5z M17.9,90.7l-0.7,0
		c-0.1,0-0.1,0-0.2,0h-0.8l-0.3,0c-0.3,0-0.5,0-0.6,0c0,0.2,0,0.7-0.1,1.4c0,1.5-0.1,2.6-0.1,3.3c-0.1,0.8-0.2,1.4-0.3,1.9
		c-0.2,0.5-0.4,0.9-0.7,1.1c-0.3,0.2-0.7,0.4-1.1,0.4c-0.2,0-0.4,0-0.6-0.1c0-0.1,0-0.3,0-0.4c0-0.2,0-0.5,0-0.8l0.1-0.1
		c0.3,0.4,0.6,0.5,0.8,0.5c0.4,0,0.6-0.2,0.8-0.7c0.2-0.5,0.3-1.4,0.3-2.8c0.1-1.4,0.1-2.4,0.1-3.2c0-0.4,0-0.6-0.1-0.7
		c-0.1-0.1-0.4-0.1-0.9-0.2v-0.5c0.7,0,1.3,0,1.9,0h3c0.5,0,1.2,0,2,0v0.5c-0.4,0-0.7,0.1-0.8,0.1c-0.1,0-0.1,0.1-0.1,0.2
		c0,0.1-0.1,0.5-0.1,1.3c0,0.8,0,1.3,0,1.6c0,0.1,0,0.6,0,1.5l0,2c0,0.4,0,0.7,0,0.7c0,0.1,0.1,0.2,0.1,0.2c0,0,0.1,0.1,0.2,0.1
		c0.1,0,0.3,0,0.7,0.1v0.5c-0.1,0-0.3,0-0.6,0c-0.5,0-0.8,0-1,0c-0.6,0-1.2,0-1.9,0v-0.5c0.5,0,0.8-0.1,0.8-0.2
		c0.1-0.1,0.1-0.4,0.1-1c0-0.6,0-2,0-4.1L17.9,90.7z M21.7,98.1c0.3,0,0.6-0.1,0.6-0.1c0.1,0,0.1-0.2,0.3-0.5
		c0.2-0.5,0.5-1.3,0.9-2.2l1.9-5.4h0.8l2.5,6.7c0.3,0.8,0.5,1.3,0.6,1.4c0.1,0.1,0.3,0.1,0.7,0.2v0.6c-0.6,0-1.2,0-1.7,0
		c-0.6,0-1.2,0-1.8,0v-0.6c0.4,0,0.7,0,0.8-0.1c0.1,0,0.1-0.1,0.1-0.2c0-0.1-0.1-0.3-0.2-0.8l-0.4-1c-0.5,0-1,0-1.5,0
		c-0.5,0-0.9,0-1.3,0l-0.2,0.7c-0.1,0.2-0.1,0.5-0.2,0.9c0,0.1,0,0.2,0,0.2c0,0.1,0,0.2,0.1,0.2c0.1,0,0.3,0.1,0.8,0.1v0.6
		c-0.4,0-0.8,0-1.3,0c-0.5,0-0.9,0-1.2,0V98.1z M25.3,92.1l-1.2,3.2c0.3,0,0.7,0,1.1,0c0.4,0,0.8,0,1.2,0L25.3,92.1z M38.1,97.3
		l0.1,0.1c-0.1,0.2-0.2,0.4-0.2,0.6c-0.4,0.3-0.8,0.4-1.2,0.5c-0.4,0.1-0.8,0.2-1.4,0.2c-1,0-1.8-0.2-2.4-0.6
		c-0.7-0.4-1.2-0.9-1.5-1.6c-0.4-0.7-0.5-1.5-0.5-2.4c0-1.3,0.4-2.3,1.2-3.2c0.8-0.8,1.9-1.2,3.3-1.2c0.5,0,0.9,0,1.4,0.1
		c0.5,0.1,0.9,0.2,1.4,0.4l0,0.1c-0.1,0.2-0.1,0.4-0.1,0.6c0,0.4-0.1,0.8-0.1,1.3h-0.5c0-0.7,0-1-0.1-1.1c0-0.1-0.1-0.2-0.3-0.3
		c-0.2-0.2-0.4-0.3-0.7-0.4c-0.3-0.1-0.6-0.1-1-0.1c-0.9,0-1.6,0.3-2.1,0.9c-0.5,0.6-0.8,1.5-0.8,2.6c0,1.2,0.3,2.1,0.9,2.9
		c0.6,0.7,1.4,1,2.4,1c0.4,0,0.8,0,1.1-0.1C37.3,97.7,37.7,97.5,38.1,97.3z M46.7,97.3l0.1,0.1c-0.1,0.2-0.2,0.4-0.2,0.6
		c-0.4,0.3-0.8,0.4-1.2,0.5c-0.4,0.1-0.8,0.2-1.4,0.2c-1,0-1.8-0.2-2.4-0.6c-0.7-0.4-1.2-0.9-1.5-1.6c-0.4-0.7-0.5-1.5-0.5-2.4
		c0-1.3,0.4-2.3,1.2-3.2c0.8-0.8,1.9-1.2,3.3-1.2c0.5,0,0.9,0,1.4,0.1c0.5,0.1,0.9,0.2,1.4,0.4l0,0.1c-0.1,0.2-0.1,0.4-0.1,0.6
		c0,0.4-0.1,0.8-0.1,1.3h-0.5c0-0.7,0-1-0.1-1.1c0-0.1-0.1-0.2-0.3-0.3c-0.2-0.2-0.4-0.3-0.7-0.4c-0.3-0.1-0.6-0.1-1-0.1
		c-0.9,0-1.6,0.3-2.1,0.9c-0.5,0.6-0.8,1.5-0.8,2.6c0,1.2,0.3,2.1,0.9,2.9c0.6,0.7,1.4,1,2.4,1c0.4,0,0.8,0,1.1-0.1
		C45.9,97.7,46.3,97.5,46.7,97.3z M56.7,89.9v0.5c-0.5,0-0.8,0.1-0.9,0.2c-0.1,0.1-0.1,1-0.1,2.8c0,2,0,3.2,0,3.7
		c0,0.5,0.1,0.8,0.1,0.8c0.1,0.1,0.4,0.1,0.9,0.2v0.5c0,0-0.1,0-0.3,0c-0.6,0-1.1,0-1.4,0c-0.2,0-0.8,0-1.9,0v-0.5
		c0.5,0,0.8-0.1,0.9-0.2c0.1-0.1,0.1-0.8,0.1-2l0-3.5c0-0.2,0-0.6,0-1.1l-0.7,1.4c-1,2-1.8,3.4-2.2,4c-0.4,0.7-0.8,1.3-1.3,1.9
		c-0.5,0.1-0.8,0.1-0.9,0.2l-0.1-0.1c0.1-0.7,0.1-2.3,0.1-5c0-2,0-3-0.1-3.1c-0.1-0.1-0.4-0.2-0.9-0.2v-0.5c0.8,0,1.3,0,1.6,0
		c0.8,0,1.4,0,2,0v0.5c-0.5,0-0.8,0.1-0.9,0.2c-0.1,0.1-0.1,1-0.1,2.8c0,0.3,0,1.4,0,3.2l0.7-1.2c1.1-2,2.1-3.8,2.9-5.4l0.5,0
		C55.4,90,56.1,90,56.7,89.9z M63.4,94.1c0-2.1,0-3.2-0.1-3.4c-0.1-0.2-0.4-0.2-0.9-0.3v-0.5c0,0,0.1,0,0.3,0c0.7,0,1.2,0,1.5,0
		c0.6,0,1.2,0,1.8,0v0.5c-0.5,0-0.8,0.1-0.9,0.2c-0.1,0.1-0.1,1.1-0.1,3c0,0.1,0,0.6,0,1.5l0,2c0,0.4,0,0.7,0,0.8
		c0,0.1,0.1,0.1,0.1,0.2c0,0,0.1,0.1,0.2,0.1c0.1,0,0.3,0,0.7,0.1v0.5c-0.1,0-0.3,0-0.6,0c-0.5,0-0.8,0-1,0c-0.6,0-1.2,0-1.9,0v-0.5
		c0.5,0,0.8-0.1,0.8-0.1c0.1-0.1,0.1-0.4,0.1-0.9c0-0.6,0-1.3,0-2.2c-0.9,0.7-1.8,1.1-2.5,1.1c-0.7,0-1.3-0.2-1.7-0.6
		c-0.5-0.4-0.7-1.1-0.7-2l0-1.6c0-0.6,0-1-0.1-1.1c-0.1-0.1-0.3-0.1-0.9-0.2v-0.5c0.7,0,1.3,0,1.7,0c0.7,0,1.3,0,1.9,0v0.5
		c-0.5,0-0.8,0.1-0.9,0.2c-0.1,0.1-0.1,0.8-0.1,2c0,1.5,0.5,2.2,1.6,2.2C62.3,94.9,62.9,94.6,63.4,94.1z M67.5,98.7v-0.3
		c0.2-0.1,0.4-0.2,0.5-0.4c0.1-0.7,0.1-2,0.1-4.1c0-1.4,0-2.4,0-2.8c0-0.2,0-0.4-0.1-0.5c-0.1-0.1-0.3-0.1-0.8-0.2v-0.5
		c0.9,0,1.5,0,2,0l3,0c0.3,0,0.6,0,0.9,0l0,0.1c-0.1,0.5-0.1,1.1-0.2,1.8h-0.4c0-0.6,0-0.9-0.1-1c0,0-0.1-0.1-0.2-0.1
		c-0.3-0.1-0.8-0.1-1.4-0.1c-0.3,0-0.7,0-1.1,0c0,1.3-0.1,2.3-0.1,3.1c0.4,0,0.8,0,1.1,0c0.5,0,0.8,0,0.9-0.1c0.1,0,0.1-0.1,0.1-0.2
		c0-0.1,0-0.3,0.1-0.8h0.5c0,0.7,0,1.2,0,1.4l0,1.4h-0.5c0-0.5-0.1-0.9-0.1-0.9c0-0.1-0.1-0.1-0.1-0.1c-0.2,0-0.6-0.1-1.2-0.1
		c-0.2,0-0.4,0-0.7,0c0,0.2,0,0.4,0,0.7c0,1.2,0,2.1,0.1,2.7l1.1,0c0.6,0,1.2,0,1.7-0.1c0.1-0.4,0.2-0.8,0.3-1.3h0.5
		c-0.1,0.7-0.1,1.4-0.1,2.1c-0.3,0-0.7,0-1,0c-0.2,0-0.6,0-1.2,0c-0.6,0-1.1,0-1.5,0C68.8,98.6,68.2,98.6,67.5,98.7z M81.7,97.3
		l0.1,0.1c-0.1,0.2-0.2,0.4-0.2,0.6c-0.4,0.3-0.8,0.4-1.2,0.5c-0.4,0.1-0.8,0.2-1.4,0.2c-1,0-1.8-0.2-2.4-0.6
		c-0.7-0.4-1.2-0.9-1.5-1.6c-0.4-0.7-0.5-1.5-0.5-2.4c0-1.3,0.4-2.3,1.2-3.2c0.8-0.8,1.9-1.2,3.3-1.2c0.5,0,0.9,0,1.4,0.1
		c0.5,0.1,0.9,0.2,1.4,0.4l0,0.1c-0.1,0.2-0.1,0.4-0.1,0.6c0,0.4-0.1,0.8-0.1,1.3h-0.5c0-0.7,0-1-0.1-1.1c0-0.1-0.1-0.2-0.3-0.3
		c-0.2-0.2-0.4-0.3-0.7-0.4c-0.3-0.1-0.6-0.1-1-0.1c-0.9,0-1.6,0.3-2.1,0.9c-0.5,0.6-0.8,1.5-0.8,2.6c0,1.2,0.3,2.1,0.9,2.9
		c0.6,0.7,1.4,1,2.4,1c0.4,0,0.8,0,1.1-0.1C80.9,97.7,81.3,97.5,81.7,97.3z M83,98.7v-0.5c0.4,0,0.7-0.1,0.8-0.1c0,0,0.1,0,0.1-0.1
		c0-0.1,0.1-0.2,0.1-0.4c0-0.3,0.1-0.9,0.1-1.8l0-2.4c0-0.8,0-1.4,0-1.9c0-0.5,0-0.8-0.1-0.9c0-0.1-0.1-0.1-0.1-0.1
		c-0.1,0-0.3-0.1-0.8-0.1v-0.5c0.7,0,1.3,0,1.8,0c0.6,0,1.2,0,1.8,0v0.5c-0.5,0-0.7,0.1-0.8,0.1c-0.1,0.1-0.1,0.2-0.1,0.4
		c0,0.3,0,1.3,0,3.1h0.1c0.4-0.3,0.9-0.9,1.6-1.7c0.7-0.8,1.2-1.5,1.6-2l0-0.2l0-0.2l0-0.1c0.4,0,0.7,0,1,0c0.3,0,0.6,0,1,0v0.5
		l-0.3,0c-0.2,0-0.4,0.1-0.5,0.1c-0.1,0.1-0.3,0.2-0.6,0.5c-0.4,0.3-0.8,0.8-1.4,1.4l-1,1l0.5,0.7c0.6,0.8,1.3,1.8,2.1,2.8
		c0.5,0.6,0.8,1,0.9,1c0.1,0,0.2,0.1,0.5,0.1v0.5l-0.3,0l-1,0c-0.3,0-0.6,0-1,0c-0.3-0.4-0.8-1.1-1.5-2.1c-0.5-0.7-1-1.4-1.5-1.9
		c-0.1-0.1-0.1-0.1-0.1-0.1c0,0,0,0-0.1,0c-0.1,0-0.1,0-0.1,0.1c0,0,0,0.2,0,0.5l0,1.9c0,0.6,0,0.9,0.1,1c0,0.1,0.1,0.1,0.1,0.1
		c0.1,0,0.3,0.1,0.8,0.1v0.5c-0.5,0-1.1,0-1.8,0C84.3,98.6,83.8,98.6,83,98.7z M100.8,89.9v0.5c-0.5,0-0.8,0.1-0.9,0.2
		c-0.1,0.1-0.1,1-0.1,2.8c0,2,0,3.2,0,3.7c0,0.5,0.1,0.8,0.1,0.8c0.1,0.1,0.4,0.1,0.9,0.2v0.5c0,0-0.1,0-0.3,0c-0.6,0-1.1,0-1.4,0
		c-0.2,0-0.8,0-1.9,0v-0.5c0.5,0,0.8-0.1,0.9-0.2c0.1-0.1,0.1-0.8,0.1-2l0-3.5c0-0.2,0-0.6,0-1.1l-0.7,1.4c-1,2-1.8,3.4-2.2,4
		c-0.4,0.7-0.8,1.3-1.3,1.9c-0.5,0.1-0.8,0.1-0.9,0.2L93,98.8c0.1-0.7,0.1-2.3,0.1-5c0-2,0-3-0.1-3.1c-0.1-0.1-0.4-0.2-0.9-0.2v-0.5
		c0.8,0,1.3,0,1.6,0c0.8,0,1.4,0,2,0v0.5c-0.5,0-0.8,0.1-0.9,0.2c-0.1,0.1-0.1,1-0.1,2.8c0,0.3,0,1.4,0,3.2l0.7-1.2
		c1.1-2,2.1-3.8,2.9-5.4l0.5,0C99.6,90,100.2,90,100.8,89.9z M110.7,89.9v0.5c-0.5,0-0.8,0.1-0.9,0.2c-0.1,0.1-0.1,1-0.1,2.8
		c0,2,0,3.2,0,3.7c0,0.5,0.1,0.8,0.1,0.8c0.1,0.1,0.4,0.1,0.9,0.2v0.5c0,0-0.1,0-0.3,0c-0.6,0-1.1,0-1.4,0c-0.2,0-0.8,0-1.9,0v-0.5
		c0.5,0,0.8-0.1,0.9-0.2c0.1-0.1,0.1-0.8,0.1-2l0-3.5c0-0.2,0-0.6,0-1.1l-0.7,1.4c-1,2-1.8,3.4-2.2,4c-0.4,0.7-0.8,1.3-1.3,1.9
		c-0.5,0.1-0.8,0.1-0.9,0.2l-0.1-0.1c0.1-0.7,0.1-2.3,0.1-5c0-2,0-3-0.1-3.1c-0.1-0.1-0.4-0.2-0.9-0.2v-0.5c0.8,0,1.3,0,1.6,0
		c0.8,0,1.4,0,2,0v0.5c-0.5,0-0.8,0.1-0.9,0.2c-0.1,0.1-0.1,1-0.1,2.8c0,0.3,0,1.4,0,3.2l0.7-1.2c1.1-2,2.1-3.8,2.9-5.4l0.5,0
		C109.4,90,110.1,90,110.7,89.9z M108.7,88.2c-0.3,0.2-0.6,0.3-0.8,0.4c-1.1,0-2.1-0.1-3.2-0.4V88c0.4-0.2,0.8-0.5,1.2-0.9
		c0.6,0.5,1.5,0.8,2.8,0.9L108.7,88.2z M127.5,89.7h0.4c0-0.6,0.1-1.2,0.1-1.8c0-0.3,0.1-0.6,0.2-0.9l0,0c-0.6-0.3-1.2-0.5-1.9-0.6
		c-0.6-0.1-1.3-0.2-2-0.2c-1.7,0-3.4,0.4-4.6,1.7c-1.1,1.2-1.7,2.6-1.7,4.4c0,1.2,0.2,2.3,0.7,3.3c0.5,1,1.2,1.7,2.1,2.2
		c1,0.6,2.2,0.8,3.4,0.8c0.6,0,1.3-0.1,1.9-0.2c0.6-0.2,1.1-0.4,1.7-0.7c0.1-0.3,0.2-0.5,0.3-0.8l-0.1-0.1c-0.5,0.3-1,0.5-1.5,0.6
		c-0.5,0.1-1,0.2-1.6,0.2c-1.3,0-2.5-0.4-3.5-1.5c-1-1.2-1.4-2.6-1.4-4.2c0-1.4,0.3-2.7,1.1-3.7c0.8-1,1.9-1.4,3.1-1.4
		c0.5,0,1,0.1,1.5,0.2c0.4,0.1,0.8,0.3,1.1,0.6c0.1,0.1,0.4,0.4,0.5,0.5C127.4,88.4,127.5,89.3,127.5,89.7z M131.2,98.7v-0.5
		c0.2,0,0.4,0,0.6-0.1c0.1,0,0.2-0.1,0.2-0.1c0,0,0.1-0.1,0.1-0.3c0-0.2,0-0.8,0.1-2c0-0.8,0-1.6,0-2.5c0-1.6,0-2.5,0-2.5
		c0,0-0.1,0-0.4,0c-0.5,0-0.9,0-1.3,0.1c-0.2,0-0.3,0-0.4,0.1c0,0,0,0.1-0.1,0.1c0,0.1,0,0.4-0.1,1.1h-0.5c0-0.8,0-1.5-0.1-2.1
		l0.1-0.1c1.2,0.1,2.3,0.1,3.4,0.1c1.1,0,2.3,0,3.7-0.1l0.1,0.1c-0.1,0.6-0.1,1.3-0.1,2H136c0-0.7-0.1-1.1-0.1-1.1
		c0,0-0.1-0.1-0.2-0.1c-0.3-0.1-0.9-0.1-1.7-0.1c-0.1,0-0.1,0-0.1,0c0,0,0,0.1,0,0.3l0,4.2c0,1.2,0,2,0,2.2c0,0.3,0.1,0.4,0.1,0.5
		c0,0,0.3,0.1,0.9,0.1v0.5c-0.5,0-1.1,0-1.7,0C132.4,98.6,131.7,98.6,131.2,98.7z M146.3,89.9v0.5c-0.5,0-0.8,0.1-0.9,0.2
		c-0.1,0.1-0.1,1-0.1,2.8c0,2,0,3.2,0,3.7c0,0.5,0.1,0.8,0.1,0.8c0.1,0.1,0.4,0.1,0.9,0.2v0.5c0,0-0.1,0-0.3,0c-0.6,0-1.1,0-1.4,0
		c-0.2,0-0.8,0-1.9,0v-0.5c0.5,0,0.8-0.1,0.9-0.2c0.1-0.1,0.1-0.8,0.1-2l0-3.5c0-0.2,0-0.6,0-1.1l-0.7,1.4c-1.1,2-1.8,3.4-2.2,4
		c-0.4,0.7-0.8,1.3-1.3,1.9c-0.5,0.1-0.8,0.1-0.9,0.2l-0.1-0.1c0.1-0.7,0.1-2.3,0.1-5c0-2,0-3-0.1-3.1c-0.1-0.1-0.4-0.2-0.9-0.2
		v-0.5c0.8,0,1.3,0,1.6,0c0.8,0,1.4,0,2,0v0.5c-0.5,0-0.8,0.1-0.9,0.2c-0.1,0.1-0.1,1-0.1,2.8c0,0.3,0,1.4,0,3.2l0.7-1.2
		c1.1-2,2.1-3.8,2.9-5.4l0.5,0C145.1,90,145.8,90,146.3,89.9z M152.7,90.7l-0.7,0c-0.1,0-0.1,0-0.2,0H151l-0.3,0c-0.3,0-0.5,0-0.6,0
		c0,0.2,0,0.7-0.1,1.4c0,1.5-0.1,2.6-0.1,3.3c-0.1,0.8-0.2,1.4-0.3,1.9c-0.2,0.5-0.4,0.9-0.7,1.1c-0.3,0.2-0.7,0.4-1.1,0.4
		c-0.2,0-0.4,0-0.6-0.1c0-0.1,0-0.3,0-0.4c0-0.2,0-0.5,0-0.8l0.1-0.1c0.3,0.4,0.6,0.5,0.8,0.5c0.4,0,0.6-0.2,0.8-0.7
		c0.2-0.5,0.3-1.4,0.3-2.8c0.1-1.4,0.1-2.4,0.1-3.2c0-0.4,0-0.6-0.1-0.7c-0.1-0.1-0.4-0.1-0.9-0.2v-0.5c0.7,0,1.3,0,1.9,0h3
		c0.5,0,1.2,0,2,0v0.5c-0.4,0-0.7,0.1-0.8,0.1c-0.1,0-0.1,0.1-0.2,0.2c0,0.1-0.1,0.5-0.1,1.3c0,0.8,0,1.3,0,1.6c0,0.1,0,0.6,0,1.5
		l0,2c0,0.4,0,0.7,0,0.7c0,0.1,0.1,0.2,0.1,0.2c0,0,0.1,0.1,0.2,0.1c0.1,0,0.3,0,0.7,0.1v0.5c-0.1,0-0.3,0-0.6,0c-0.5,0-0.8,0-1,0
		c-0.6,0-1.2,0-1.9,0v-0.5c0.5,0,0.8-0.1,0.8-0.2c0.1-0.1,0.1-0.4,0.1-1c0-0.6,0.1-2,0-4.1L152.7,90.7z M157,98.7v-0.3
		c0.2-0.1,0.4-0.3,0.5-0.4c0-0.4,0.1-1.8,0.1-4c0-2.1,0-3.2-0.1-3.3c-0.1-0.1-0.4-0.2-0.9-0.2v-0.5c0.7,0,1.3,0,1.7,0
		c0.7,0,1.3,0,1.9,0v0.5c-0.5,0-0.8,0.1-0.9,0.1c-0.1,0.1-0.1,0.2-0.1,0.5c0,0.3,0,1.1,0,2.4c0.1,0,0.3,0,0.5,0c0.2,0,0.3,0,0.4,0
		c1.1,0,1.8,0.2,2.3,0.7c0.5,0.5,0.7,1,0.7,1.7c0,0.5-0.1,1-0.4,1.4c-0.3,0.4-0.6,0.7-1,1c-0.4,0.2-1,0.4-1.9,0.4
		c-0.2,0-0.4,0-0.7,0c-0.3,0-0.5,0-0.6,0C158,98.6,157.6,98.6,157,98.7z M159.1,98c0.2,0.1,0.4,0.1,0.6,0.1c1.1,0,1.6-0.7,1.6-2
		c0-0.4-0.1-0.8-0.2-1c-0.1-0.3-0.3-0.5-0.5-0.6c-0.2-0.1-0.5-0.2-0.9-0.2l-0.5,0c0,0.3,0,1,0,2.2C159.1,97.2,159.1,97.7,159.1,98z"
		/>
	<g>
		<path class="st1" d="M136.9,71.4c-0.1,0.1-0.2,0.2-0.1,0.3c0.1,0.1,0.3,0.4,1,0.9c0.7,0.4,1.6,1.3,4.2,2.2
			c2.5,0.9,3.5,0.1,4.1-0.1c0.6-0.2,0.3-0.3-0.5-0.3c-0.8,0-2.4-0.5-2.9-2.7c-0.5-2.1,0.6-4.3,3.1-4.8c2.5-0.5,5.3,1.6,5.4,4.5
			c0.1,2.9-1.5,4.6-3,5.3c-1.5,0.7-3.8,0.7-4.3,0.8c-0.5,0.1,0,0.4,0.7,0.6c0.7,0.3,3.4,0.9,3.8,1c0.4,0.1,0.5,0.3,0,0.4
			c-0.5,0.1-2.3,0.5-5.7,0.1c-3.3-0.4-4.9-1.6-5.3-1.9c-0.2-0.1-0.6-0.5-0.5-0.2c0.1,0.3,0,1.2,0.1,1.4c0.1,0.3-0.2,0.3-0.6,0.3
			c-0.4,0-1.2-0.1-2.9-0.7c-1.6-0.6-2.2-1.3-2.5-1.3c-0.2,0-0.2,0.2-0.7,0.3c-0.5,0.2-1.5,0.4-2.2,0.2c-0.6-0.1-0.8-0.1-1,0
			c-0.2,0.2-0.3,1.1-2.2,2.1c-1.9,1-3.7,0-4.5-0.5c-0.7-0.4-0.9-0.6-1.1-0.8c-0.1-0.1,0-0.3,0.3-0.4c0.4-0.1,0.9-0.4,1.2-0.5
			c0.9-0.4,1.4-0.9,2.1-2.1c0.7-1.1,0.4-3.1,0.1-3.8c-0.3-0.7-0.6-1-1.1-0.6c-0.3,0.2-0.4,0.6-0.4,0.9c0.1,0.4,0.2,1.6-0.4,3.2
			c-0.8,2-2.7,3.1-6.5,3.2c-3.8,0.1-7-3.3-7.1-7.8c-0.1-4.5,3.9-7.3,5.7-8c1.8-0.7,5.2-1.3,8.3-0.3c3.1,1,5.9,1.6,8,0.7
			c2.2-0.9,3.8-3.6,3.8-4.1c0-0.5,0.3-0.5,0.8-0.2c0.5,0.4,1.4,1.1,1.5,2.8c0.1,1.8-0.9,2.7-0.9,2.8c0,0.1,1.1,0.1,1.8,0
			c0.7-0.1,0.8-0.2,0.7,0.3c-0.1,0.5-0.4,1.5-0.9,2c-0.5,0.5-0.9,0.7-1.1,0.8c-0.2,0.1-0.4,0.2-0.2,0.4c0.2,0.1,0.3,0.2,0.9,0.6
			c0.6,0.4,1,0.5,1.4,0.6c0.4,0.1,0.9,0.1,0.8,0.3c-0.1,0.2-0.4,1.1-1.1,1.5C137.1,71.3,137,71.4,136.9,71.4 M147.4,68.4
			c-0.4-0.1-0.7,0.1-0.5,0.4c0.2,0.3,1.1,0.4,1.7,1c0.5,0.6,1,1.6,0.8,2.8c-0.2,1.2-1,2-1.5,2.3c-0.5,0.3-0.2,0.4,0.1,0.2
			c0.3-0.2,2-1.6,1.9-3.2c0-1.6-0.8-2.4-1.2-2.8C148.3,68.8,147.7,68.5,147.4,68.4z M146.6,71.2c-0.1-0.3-0.5-0.4-0.4,0
			c0.1,0.4-0.1,1.1-0.6,1.1c-0.5,0-0.8,0.2-0.4,0.3c0.5,0.1,1.1,0.1,1.4-0.5C146.9,71.7,146.6,71.2,146.6,71.2z M124.9,72
			c-0.2-0.4-0.4-0.3-0.3,0.1c0.1,0.4,0.5,1.1,0.4,2.8c-0.2,1.7-0.9,2.2-1.3,2.5c-0.4,0.2-0.4,0.4,0.3,0.2c0.6-0.2,1.4-0.9,1.6-2.4
			C125.7,73.8,124.9,72,124.9,72z M117.3,68c0.4,0.2,0.1,0.4-0.1,0.2c-0.2-0.1-2.8-0.3-4.1,1.1c-1.3,1.4-1.4,3.2-1,4.2
			c0.4,1,0.6,1.2,0.9,1.5c0.3,0.3,0.1,0.3-0.2,0.1c-0.3-0.2-1.8-1.5-1.4-4.1c0.4-2.5,2.1-3.3,3.3-3.5
			C115.8,67.4,116.9,67.8,117.3,68z M121.6,70c-0.1,0.5-0.3,1-0.7,1.3c-0.8,0.5-1.1,0.7-1.3,0.6c-0.2-0.1-0.1-0.4-0.1-0.9
			c0-0.5-0.4-3.3-3.1-3.9c-2.7-0.6-5.9,0.8-6,4.4c-0.1,3.6,2.3,5,4.5,5.1c2.2,0.1,3.4-1.4,3.4-2.6c0-1.2-0.2-2-1-2.4
			c-0.8-0.4-1.3,0.3-0.5,0.6c0.8,0.3,1.4,1.9,0.3,2.8c-1.1,1-3,0.6-4-0.8c-0.9-1.4-0.7-3.4,0.6-4.5c1.3-1.1,2.8-0.9,3.4-0.7
			c0.7,0.2,1.1,0.7,1.2,1.1c0.1,0.4,0,0.4-0.2,0.2c-0.3-0.2-1.5-0.7-2.7-0.2c-1.2,0.5-1.7,1.4-1.7,2.7c0.1,1.2,0.9,1.8,1.6,1.8
			c0.6,0,1.5-0.3,1.5-0.9c0-0.6-0.3-1.1-0.8-1c-0.5,0.1-0.6,0.5-0.4,0.7c0.2,0.3,0.5,0.5,0,0.6c-0.5,0.1-1.1-0.3-1.2-1
			c0-0.7,0.2-2.3,1.8-2.4c1.6-0.1,2.3,0.8,2.5,1.6c0.1,0.3-0.1,0.7,0.4,0.5c0.5-0.2,1.1-0.2,1.4-0.5c0.1-0.1,0.1,0,0.2,0l0,0
			c0,0,0.3,1-0.2,2.7c-0.5,1.7-2.2,3.2-5.8,3.3c-3.6,0.1-6.3-3-6.4-7.4c-0.1-4.4,4-6.9,5.5-7.6c1.5-0.6,4.9-1.1,7.9-0.2
			c3.1,1,6.1,1.5,8.2,0.6c2.2-0.9,3.8-3.5,3.9-4c0-0.5,0.3-0.4,0.7,0c0.4,0.4,0.8,1.2,0.8,2.5c0.1,1.3-1.3,2.8-1.3,2.8
			c0,0,1.3,0.3,2,0.2c0.7-0.1,0.8-0.1,0.7,0.3c-0.1,0.5-0.4,0.9-1.1,1.4c-0.6,0.5-1.6,0.8-1.8,0.9c-0.2,0.1-0.2,0.2,0,0.3
			c0.2,0.1,0.6,0.5,1.5,1c0.8,0.6,1.5,0.8,1.8,0.9c0.4,0,0.2,0.1,0.1,0.3c-0.1,0.2-0.6,0.6-1.2,0.9c-0.7,0.3-1.9,0.5-2.2,0.5
			c-0.3,0-0.2,0.2,0.1,0.5c0.3,0.3,1.4,1.2,2.8,2.1c1.4,0.8,2.8,1.3,3.2,1.5c0.5,0.1,0.6-0.1,0.2-0.3c-0.5-0.2-1.6-0.7-3-1.5
			c-1.4-0.8-1.7-1.3-1.9-1.4c-0.3-0.2-0.4-0.4,0.1-0.5c0.1,0,0.3-0.1,0.5-0.1c0.4,0.1,0.6,0.3,1.1,0.7c0.6,0.5,2.4,1.8,4.9,2.7
			c2.4,0.8,3.8,0.1,4.5-0.2c0,0,0.1,0,0.1,0c0.5-0.2,1.5-0.8,1.8-2.1c0.3-1.4-0.4-2.3-0.7-2.6c-0.3-0.2-0.4-0.1-0.3,0
			c0.1,0.1,0.2,0.2,0.3,0.8c0.2,0.6-0.1,1.9-1.1,2.4c-0.4,0.2-0.8,0.2-1.1,0.2c-0.8-0.1-1.7-0.5-2.1-2.1c-0.5-1.9,0.3-3.9,2.5-4.3
			c2.2-0.4,4.7,1.4,4.8,4.1c0.1,2.7-1.2,4.1-2.7,4.9c-0.8,0.4-2.3,0.6-3.5,0.6c-1,0-1.8-0.2-2-0.3c-0.5-0.1-0.3,0.4,0.4,1
			c0.7,0.6,1.6,1.2,2.8,1.5c1.2,0.3,0.1,0.2-0.5,0.2c-0.6,0-2.1,0-4.5-0.6c-2.4-0.7-3.6-2.2-3.9-2.6c-0.4-0.4-0.7-0.5-0.6,0
			c0.2,0.9,0.3,2.1,0.3,2.3c0,0.4-0.1,0.6-0.5,0.5c-0.3,0-0.7-0.1-2.3-0.8c-1.6-0.7-2.3-1.6-2.6-1.7c-1-0.6-2.1-3.7-3.2-5.1
			c-0.3-0.4-0.7-0.4-1-0.3c-0.3,0.1-0.8,0.4-0.5,0.9c0.1,0.3,0.2,0.7,0.7,0.9c0.9,0.3,1.6,1.8,2,2.6c0.4,0.9,0.5,1.7,0.3,1.7
			c-0.5,0.2-1.4,0.4-2-0.4c-0.6-0.8-1-0.2-0.9,0.2c0.1,0.4-0.1,1.8-1.7,2.6c-1.7,0.9-3,0-3.4-0.2c-0.3-0.2-1-0.5-1.1-0.6
			c-0.1-0.1,1-0.4,1.6-0.8c0.6-0.4,1.3-1,1.9-2.2c0.5-1.1,0.4-2.7,0.1-3.7c-0.1-0.6-0.3-1.3-0.4-1.5c-0.1-0.2,0-0.3,0.1-0.2
			c0.2,0.1,0.6,0.1,1.4,1c0.8,0.9,1,2.1,1.2,2.4c0.1,0.3,0.3,0.4,0.3,0.1c-0.1-0.4,0-0.9-0.5-2c-0.5-1.1-1.9-2.2-2.7-2.9
			c-0.4-0.4-0.7-0.9-0.9-1.2c0,0,0-0.1,0-0.1c-0.3-0.7-1-1.3-1.5-1.7c-0.5-0.4-0.9-0.1-0.6,0.2c0.3,0.2,0.7,0.5,1.1,1.3
			C121.6,68.1,121.6,69.1,121.6,70z M134.2,76.1c0.3,0.3,0.3,0.5-0.2,0.3c-0.4-0.3-1.8-1.3-3.3-2.9c-1.5-1.6-2.6-3-3.8-3.9
			c-1.2-0.9-2.1-1.4-2.6-1.7c-0.5-0.3-0.4-0.4,0-0.3c0.4,0.2,2.3,1.3,3.3,2.2c1,0.9,2.6,2.2,3.5,3.4
			C132.2,74.4,133.9,75.8,134.2,76.1z M138.3,75.9c0.5,0.1,0.7,0.4,0.1,0.3c-0.6-0.1-3.4-1.2-5.6-2.8c-2.3-1.6-5.2-5-8.3-6.7
			c-3.1-1.7-5.6-2.2-6.8-2.2c-1.2,0-1-0.2-0.1-0.3c0.9,0,4.2,0.5,7.4,2.2c3.2,1.7,6.8,5.4,8.9,6.9C136,74.9,138.3,75.9,138.3,75.9z
			 M123.8,64.8c0.6,0.2,2.6,0.8,5,0.5c2.5-0.3,3.9-1.7,4.3-2.4c0.4-0.7,0.7-0.4,0.3,0.2c-0.3,0.5-1.4,2.3-4.6,2.7
			c-3.1,0.4-6.8-1.2-7.1-1.3c-0.3-0.1-0.1-0.3,0.1-0.2C122.2,64.2,123.2,64.6,123.8,64.8z M126.3,66.2c-0.4-0.2-0.5,0-0.1,0.2
			c0.4,0.2,2.5,1,3.5,2c1.1,0.9,2.2,1.9,3.4,2.2c0.6,0.1,1.3,0,1.6-0.1c0.3-0.1,0.3-0.2-0.1-0.2c-0.7,0-1.3,0.1-2.6-0.7
			c-1.2-0.8-1.7-1.4-2.8-2.1C128.2,66.9,126.7,66.3,126.3,66.2z M110.7,67.7c0.3-0.4,0.2-0.7-0.2-0.2c-0.4,0.5-2.1,2.5-1.1,6.1
			c1.1,3.6,4.4,4.3,6.6,4c2.2-0.3,3.7-2.1,4-3.5c0.3-1.4-0.1-1.5-0.3-0.4c-0.2,1.1-1.2,3.1-3.7,3.4c-2.5,0.3-5-0.6-6.1-3.7
			C108.8,70.4,110.3,68.2,110.7,67.7z M120.7,70c-0.1,0.4-0.5,0.8-0.5,0.2c0-0.6,0.3-1.3-0.7-2.5c-1-1.3-1.7-1.5-2.2-1.6
			c-0.5-0.1-0.5-0.3,0.2-0.3c0.7,0,2.1,0.6,2.7,1.8C120.9,68.7,120.7,70,120.7,70z"/>
		<path class="st1" d="M109.1,65.6c-1,0.7-16.2,8.7-16.3,11.3c7.1-1.5,12.2-6.3,15.6-2.6C108.1,72.7,107.9,66.9,109.1,65.6"/>
		<path class="st1" d="M26.1,71.4c0.1,0.1,0.2,0.2,0.1,0.3c-0.1,0.1-0.3,0.4-1,0.9c-0.7,0.4-1.6,1.3-4.2,2.2
			c-2.5,0.9-3.5,0.1-4.1-0.1c-0.6-0.2-0.3-0.3,0.5-0.3c0.8,0,2.4-0.5,2.9-2.7c0.5-2.1-0.6-4.3-3.1-4.8c-2.5-0.5-5.3,1.6-5.4,4.5
			c-0.1,2.9,1.5,4.6,3,5.3c1.5,0.7,3.8,0.7,4.3,0.8c0.5,0.1,0,0.4-0.7,0.6c-0.7,0.3-3.4,0.9-3.8,1c-0.4,0.1-0.5,0.3,0,0.4
			c0.5,0.1,2.3,0.5,5.7,0.1c3.3-0.4,4.9-1.6,5.3-1.9c0.2-0.1,0.6-0.5,0.5-0.2c-0.1,0.3,0,1.2-0.1,1.4c-0.1,0.3,0.2,0.3,0.6,0.3
			c0.4,0,1.2-0.1,2.9-0.7c1.6-0.6,2.2-1.3,2.5-1.3c0.2,0,0.2,0.2,0.7,0.3c0.5,0.2,1.5,0.4,2.2,0.2c0.6-0.1,0.8-0.1,1,0
			C35.9,78.1,36,79,38,80c1.9,1,3.7,0,4.5-0.5c0.7-0.4,0.9-0.6,1.1-0.8c0.1-0.1,0-0.3-0.3-0.4c-0.4-0.1-0.9-0.4-1.2-0.5
			c-0.9-0.4-1.4-0.9-2.1-2.1c-0.7-1.1-0.4-3.1-0.1-3.8c0.3-0.7,0.6-1,1.1-0.6c0.3,0.2,0.4,0.6,0.4,0.9c-0.1,0.4-0.2,1.6,0.4,3.2
			c0.8,2,2.7,3.1,6.5,3.2c3.8,0.1,7-3.3,7.1-7.8c0.1-4.5-3.9-7.3-5.7-8c-1.8-0.7-5.2-1.3-8.3-0.3c-3.1,1-5.9,1.6-8,0.7
			c-2.2-0.9-3.8-3.6-3.8-4.1c0-0.5-0.3-0.5-0.8-0.2c-0.5,0.4-1.4,1.1-1.5,2.8c-0.1,1.8,0.9,2.7,0.9,2.8c0,0.1-1.1,0.1-1.8,0
			c-0.7-0.1-0.8-0.2-0.7,0.3c0.1,0.5,0.4,1.5,0.9,2c0.5,0.5,0.9,0.7,1.1,0.8c0.2,0.1,0.4,0.2,0.2,0.4c-0.2,0.1-0.3,0.2-0.9,0.6
			c-0.6,0.4-1,0.5-1.4,0.6c-0.4,0.1-0.9,0.1-0.8,0.3c0.1,0.2,0.4,1.1,1.1,1.5C25.9,71.3,26,71.4,26.1,71.4 M15.6,68.4
			c0.4-0.1,0.7,0.1,0.5,0.4c-0.2,0.3-1.1,0.4-1.7,1c-0.5,0.6-1,1.6-0.8,2.8c0.2,1.2,1,2,1.5,2.3c0.5,0.3,0.2,0.4-0.1,0.2
			C14.6,75,13,73.6,13,72c0-1.6,0.8-2.4,1.2-2.8C14.7,68.8,15.3,68.5,15.6,68.4z M16.4,71.2c0.1-0.3,0.5-0.4,0.4,0
			c-0.1,0.4,0.1,1.1,0.6,1.1c0.5,0,0.8,0.2,0.4,0.3c-0.5,0.1-1.1,0.1-1.4-0.5C16.1,71.7,16.4,71.2,16.4,71.2z M38.1,72
			c0.2-0.4,0.4-0.3,0.3,0.1c-0.1,0.4-0.5,1.1-0.4,2.8c0.2,1.7,0.9,2.2,1.3,2.5c0.4,0.2,0.4,0.4-0.3,0.2c-0.6-0.2-1.4-0.9-1.6-2.4
			C37.3,73.8,38.1,72,38.1,72z M45.7,68c-0.4,0.2-0.1,0.4,0.1,0.2c0.2-0.1,2.8-0.3,4.1,1.1c1.3,1.4,1.4,3.2,1,4.2
			c-0.4,1-0.6,1.2-0.9,1.5c-0.3,0.3-0.1,0.3,0.2,0.1c0.3-0.2,1.8-1.5,1.4-4.1c-0.4-2.5-2.1-3.3-3.3-3.5C47.2,67.4,46.1,67.8,45.7,68
			z M41.4,70c0.1,0.5,0.3,1,0.7,1.3c0.8,0.5,1.1,0.7,1.3,0.6c0.2-0.1,0.1-0.4,0.1-0.9c0-0.5,0.4-3.3,3.1-3.9c2.7-0.6,5.9,0.8,6,4.4
			c0.1,3.6-2.3,5-4.5,5.1c-2.2,0.1-3.4-1.4-3.4-2.6c0-1.2,0.2-2,1-2.4c0.8-0.4,1.3,0.3,0.5,0.6c-0.8,0.3-1.4,1.9-0.3,2.8
			c1.1,1,3,0.6,4-0.8c0.9-1.4,0.7-3.4-0.6-4.5c-1.3-1.1-2.8-0.9-3.4-0.7c-0.7,0.2-1.1,0.7-1.2,1.1c-0.1,0.4,0,0.4,0.2,0.2
			c0.3-0.2,1.5-0.7,2.7-0.2c1.2,0.5,1.7,1.4,1.7,2.7c-0.1,1.2-0.9,1.8-1.6,1.8c-0.6,0-1.5-0.3-1.5-0.9c0-0.6,0.3-1.1,0.8-1
			c0.5,0.1,0.6,0.5,0.4,0.7c-0.2,0.3-0.5,0.5,0,0.6c0.5,0.1,1.1-0.3,1.2-1c0-0.7-0.2-2.3-1.8-2.4c-1.6-0.1-2.3,0.8-2.5,1.6
			c-0.1,0.3,0.1,0.7-0.4,0.5c-0.5-0.2-1.1-0.2-1.4-0.5c-0.1-0.1-0.1,0-0.2,0l0,0c0,0-0.3,1,0.2,2.7c0.5,1.7,2.2,3.2,5.8,3.3
			c3.6,0.1,6.3-3,6.4-7.4c0.1-4.4-4-6.9-5.5-7.6c-1.5-0.6-4.9-1.1-7.9-0.2c-3.1,1-6.1,1.5-8.2,0.6c-2.2-0.9-3.8-3.5-3.9-4
			c0-0.5-0.3-0.4-0.7,0c-0.4,0.4-0.8,1.2-0.8,2.5c-0.1,1.3,1.3,2.8,1.3,2.8s-1.3,0.3-2,0.2c-0.7-0.1-0.8-0.1-0.7,0.3
			c0.1,0.5,0.4,0.9,1.1,1.4c0.6,0.5,1.6,0.8,1.8,0.9c0.2,0.1,0.2,0.2,0,0.3c-0.2,0.1-0.6,0.5-1.5,1c-0.8,0.6-1.5,0.8-1.8,0.9
			c-0.4,0-0.2,0.1-0.1,0.3c0.1,0.2,0.6,0.6,1.2,0.9c0.7,0.3,1.9,0.5,2.2,0.5c0.3,0,0.2,0.2-0.1,0.5c-0.3,0.3-1.4,1.2-2.8,2.1
			c-1.4,0.8-2.8,1.3-3.2,1.5c-0.5,0.1-0.6-0.1-0.2-0.3c0.5-0.2,1.6-0.7,3-1.5c1.4-0.8,1.7-1.3,1.9-1.4c0.3-0.2,0.4-0.4-0.1-0.5
			c-0.1,0-0.3-0.1-0.5-0.1c-0.4,0.1-0.6,0.3-1.1,0.7c-0.6,0.5-2.4,1.8-4.9,2.7c-2.4,0.8-3.8,0.1-4.5-0.2c0,0-0.1,0-0.1,0
			c-0.5-0.2-1.5-0.8-1.8-2.1c-0.3-1.4,0.4-2.3,0.7-2.6c0.3-0.2,0.4-0.1,0.3,0c-0.1,0.1-0.2,0.2-0.3,0.8c-0.2,0.6,0.1,1.9,1.1,2.4
			c0.4,0.2,0.8,0.2,1.1,0.2c0.8-0.1,1.7-0.5,2.1-2.1c0.5-1.9-0.3-3.9-2.5-4.3c-2.2-0.4-4.7,1.4-4.8,4.1c-0.1,2.7,1.2,4.1,2.7,4.9
			c0.8,0.4,2.3,0.6,3.5,0.6c1,0,1.8-0.2,2-0.3c0.5-0.1,0.3,0.4-0.4,1c-0.7,0.6-1.6,1.2-2.8,1.5c-1.2,0.3-0.1,0.2,0.5,0.2
			c0.6,0,2.1,0,4.5-0.6c2.4-0.7,3.6-2.2,3.9-2.6c0.4-0.4,0.7-0.5,0.6,0c-0.2,0.9-0.3,2.1-0.3,2.3c0,0.4,0.1,0.6,0.5,0.5
			c0.3,0,0.7-0.1,2.3-0.8c1.6-0.7,2.3-1.6,2.6-1.7c1-0.6,2.1-3.7,3.2-5.1c0.3-0.4,0.7-0.4,1-0.3c0.3,0.1,0.8,0.4,0.5,0.9
			c-0.1,0.3-0.2,0.7-0.7,0.9c-0.9,0.3-1.6,1.8-2,2.6c-0.4,0.9-0.5,1.7-0.3,1.7c0.5,0.2,1.4,0.4,2-0.4c0.6-0.8,1-0.2,0.9,0.2
			c-0.1,0.4,0.1,1.8,1.7,2.6c1.7,0.9,3,0,3.4-0.2c0.3-0.2,1-0.5,1.1-0.6c0.1-0.1-1-0.4-1.6-0.8c-0.6-0.4-1.3-1-1.9-2.2
			c-0.5-1.1-0.4-2.7-0.1-3.7c0.1-0.6,0.3-1.3,0.4-1.5c0.1-0.2,0-0.3-0.1-0.2c-0.2,0.1-0.6,0.1-1.4,1c-0.8,0.9-1,2.1-1.2,2.4
			c-0.1,0.3-0.3,0.4-0.3,0.1c0.1-0.4,0-0.9,0.5-2c0.5-1.1,1.9-2.2,2.7-2.9c0.4-0.4,0.7-0.9,0.9-1.2c0,0,0-0.1,0-0.1
			c0.3-0.7,1-1.3,1.5-1.7c0.5-0.4,0.9-0.1,0.6,0.2c-0.3,0.2-0.7,0.5-1.1,1.3C41.4,68.1,41.4,69.1,41.4,70z M28.8,76.1
			c-0.3,0.3-0.3,0.5,0.2,0.3c0.4-0.3,1.8-1.3,3.3-2.9c1.5-1.6,2.6-3,3.8-3.9c1.2-0.9,2.1-1.4,2.6-1.7c0.5-0.3,0.4-0.4,0-0.3
			c-0.4,0.2-2.3,1.3-3.4,2.2c-1,0.9-2.6,2.2-3.5,3.4C30.8,74.4,29.1,75.8,28.8,76.1z M24.7,75.9c-0.5,0.1-0.7,0.4-0.1,0.3
			c0.6-0.1,3.4-1.2,5.6-2.8c2.3-1.6,5.2-5,8.3-6.7c3.1-1.7,5.6-2.2,6.8-2.2c1.2,0,1-0.2,0.1-0.3c-0.9,0-4.2,0.5-7.4,2.2
			c-3.2,1.7-6.8,5.4-8.9,6.9C27,74.9,24.7,75.9,24.7,75.9z M39.2,64.8c-0.6,0.2-2.6,0.8-5,0.5c-2.5-0.3-3.9-1.7-4.3-2.4
			c-0.4-0.7-0.7-0.4-0.3,0.2c0.3,0.5,1.4,2.3,4.6,2.7c3.1,0.4,6.8-1.2,7.1-1.3c0.3-0.1,0.1-0.3-0.1-0.2
			C40.8,64.2,39.8,64.6,39.2,64.8z M36.7,66.2c0.4-0.2,0.5,0,0.1,0.2c-0.4,0.2-2.5,1-3.5,2c-1.1,0.9-2.2,1.9-3.4,2.2
			c-0.6,0.1-1.3,0-1.6-0.1c-0.3-0.1-0.3-0.2,0.1-0.2c0.7,0,1.3,0.1,2.6-0.7c1.2-0.8,1.7-1.4,2.8-2.1C34.8,66.9,36.3,66.3,36.7,66.2z
			 M52.3,67.7c-0.3-0.4-0.2-0.7,0.2-0.2c0.4,0.5,2.1,2.5,1.1,6.1s-4.4,4.3-6.6,4c-2.2-0.3-3.7-2.1-4-3.5c-0.3-1.4,0.1-1.5,0.3-0.4
			c0.2,1.1,1.2,3.1,3.7,3.4c2.5,0.3,5-0.6,6.1-3.7C54.2,70.4,52.7,68.2,52.3,67.7z M42.3,70c0.1,0.4,0.5,0.8,0.5,0.2
			c0-0.6-0.3-1.3,0.7-2.5c1-1.3,1.7-1.5,2.2-1.6c0.5-0.1,0.5-0.3-0.2-0.3c-0.7,0-2.1,0.6-2.7,1.8C42.1,68.7,42.3,70,42.3,70z"/>
		<path class="st1" d="M53.8,64.9c-1.9-0.6-4.7-2.1-6.6-2.7c1.5,0.2,2.1-1.3,1.1-2.5C49.9,61.6,52.2,63,53.8,64.9"/>
		<path class="st1" d="M53.9,65.6c1,0.7,16.2,8.7,16.3,11.3c-7.1-1.5-12.2-6.3-15.6-2.6C54.9,72.7,55.1,66.9,53.9,65.6"/>
		<path class="st1" d="M81.5,6.2c18.6,0,33.6,15.1,33.6,33.6c0,18.6-15.1,33.6-33.6,33.6c-18.6,0-33.6-15.1-33.6-33.6
			C47.9,21.3,62.9,6.2,81.5,6.2 M81.5,5c19.2,0,34.8,15.6,34.8,34.8c0,19.2-15.6,34.8-34.8,34.8c-19.2,0-34.8-15.6-34.8-34.8
			C46.7,20.6,62.3,5,81.5,5z M81.5,3.7c20,0,36.2,16.2,36.2,36.2c0,20-16.2,36.2-36.2,36.2c-20,0-36.2-16.2-36.2-36.2
			C45.3,19.9,61.5,3.7,81.5,3.7z M81.5,1.1c21.4,0,38.7,17.3,38.7,38.7c0,21.4-17.3,38.7-38.7,38.7c-21.4,0-38.7-17.3-38.7-38.7
			C42.8,18.5,60.1,1.1,81.5,1.1z"/>
		<path class="st1" d="M57.2,22.9c0,0.1-0.1,0.3-0.1,0.4c0.1,0.2,0.4,0.2,0.4,0.2l0,0h0v0.2h0.2v0h0.7v0.2v0.3v0.4h1.9v3.2h42.2
			v-0.7h-1.9v-1.5h1.2v0.6h-0.5v0.2h0.7v-1h-1.7v1.7h-0.2h0h-1.9v-1.5h1.2v0.6h-0.5v0.2h0.7v-1h-1.7v1.7h-0.2h-1.9v-1.5h1.2v0.6
			h-0.5v0.2h0.7v-1h-1.7v1.7h-0.2h0h-1.9v-1.5h1.2v0.6h-0.5v0.2h0.7v-1h-1.7v1.7h-0.2h-1.9v-1.5h1.2v0.6h-0.5v0.2h0.7v-1h-1.7v1.7
			h-0.2h0H89v-1.5h1.2v0.6h-0.5v0.2h0.7v-1h-1.7v1.7h-0.2h-1.9v-1.5h1.2v0.6h-0.5v0.2h0.7v-1h-1.7v1.7h-0.2h0h-1.9v-1.5h1.2v0.6
			h-0.5v0.2h0.7v-1h-1.7v1.7h-0.2H82v-1.5h1.2v0.6h-0.5v0.2h0.7v-1h-1.7v1.7h-0.2h0h-1.9v-1.5h1.2v0.6h-0.5v0.2h0.7v-1h-1.7v1.7
			h-0.2h-1.9v-1.5h1.2v0.6H78v0.2h0.7v-1H77v1.7h-0.2h0h-1.9v-1.5h1.2v0.6h-0.5v0.2h0.7v-1h-1.7v1.7h-0.2h-1.9v-1.5h1.2v0.6h-0.5
			v0.2H74v-1h-1.7v1.7h-0.2h0h-1.9v-1.5h1.2v0.6H71v0.2h0.7v-1H70v1.7h-0.2h-1.9v-1.5h1.2v0.6h-0.5v0.2h0.7v-1h-1.7v1.7h-0.2h0h-1.9
			v-1.5h1.2v0.6h-0.5v0.2H67v-1h-1.7v1.7h-0.2h-1.9v-1.5h1.2v0.6h-0.5v0.2h0.7v-1h-1.7v1.7h-0.2h0h-1.9v-1.5H62v0.6h-0.5v0.2h0.7v-1
			h-1.7v1.7h-0.2v-1.9h2.1v1.4h-1.1v-0.6h0.4v-0.2h-0.7V27h1.6v-1.7h2.1v1.4h-1.1v-0.6h0.4v-0.2h-0.7V27h1.6v-1.7h2.1v1.4H66v-0.6
			h0.4v-0.2h-0.7V27h1.6v-1.7h2.1v1.4h-1.1v-0.6h0.4v-0.2h-0.7V27h1.6v-1.7h2.1v1.4h-1.1v-0.6h0.4v-0.2h-0.7V27h1.6v-1.7h2.1v1.4
			h-1.1v-0.6h0.4v-0.2h-0.7V27h1.6v-1.7h2.1v1.4h-1.1v-0.6h0.4v-0.2h-0.7V27h1.6v-1.7h2.1v1.4h-1.1v-0.6h0.4v-0.2h-0.7V27h1.6v-1.7
			h2.1v1.4h-1.1v-0.6h0.4v-0.2h-0.7V27h1.6v-1.7h2.1v1.4h-1.1v-0.6h0.4v-0.2h-0.7V27h1.6v-1.7H86v1.4h-1.1v-0.6h0.4v-0.2h-0.7V27
			h1.6v-1.7h2.1v1.4h-1.1v-0.6h0.4v-0.2h-0.7V27h1.6v-1.7h2.1v1.4h-1.1v-0.6H90v-0.2h-0.7V27h1.6v-1.7H93v1.4h-1.1v-0.6h0.4v-0.2
			h-0.7V27h1.6v-1.7h2.1v1.4h-1.1v-0.6h0.4v-0.2H94V27h1.6v-1.7h2.1v1.4h-1.1v-0.6H97v-0.2h-0.7V27h1.6v-1.7h2.1v1.4h-1.1v-0.6h0.4
			v-0.2h-0.7V27h1.6v-1.7h2.1v1.4h-1.1v-0.6h0.4v-0.2H101V27h1.6v-2.3h1.9v-0.4V24v-0.2h0.7v0h0.2v-0.2l0,0c0,0,0.3,0,0.4-0.2
			c0.1-0.1,0-0.3-0.1-0.4c0.2-0.1,0.4-0.2,0.6-0.5c0.2-0.3,0.4-0.6,0.4-0.6l0.3,0.1l0.1-0.4l-25.7-5.6v0h0h0v0l-25.7,5.6l0.1,0.4
			l0.3-0.1c0,0.1,0.2,0.4,0.4,0.6C56.8,22.6,57,22.7,57.2,22.9 M107,58.7v-0.8c0.1,0,0.3-0.1,0.3-0.2v-0.8c0-0.1-0.1-0.2-0.3-0.2
			h-1.6h-1H58.6h-1.3H56c-0.1,0-0.3,0.1-0.3,0.2v0.8c0,0.1,0.1,0.2,0.3,0.2v0.8H107z M64.6,21.7h33.9l-16.7-3.2L64.6,21.7z
			 M103.8,24.3h-0.7v-0.5h0.7V24.3z M102.5,24.3h-0.7v-0.5h0.7V24.3z M101.1,24.3h-0.7v-0.5h0.7V24.3z M99.8,24.3h-0.7v-0.5h0.7
			V24.3z M98.5,24.3h-0.7v-0.5h0.7V24.3z M97.1,24.3h-0.7v-0.5h0.7V24.3z M95.8,24.3h-0.7v-0.5h0.7V24.3z M94.5,24.3h-0.7v-0.5h0.7
			V24.3z M93.1,24.3h-0.7v-0.5h0.7V24.3z M91.8,24.3h-0.7v-0.5h0.7V24.3z M90.5,24.3h-0.7v-0.5h0.7V24.3z M89.2,24.3h-0.7v-0.5h0.7
			V24.3z M87.8,24.3h-0.7v-0.5h0.7V24.3z M86.5,24.3h-0.7v-0.5h0.7V24.3z M85.2,24.3h-0.7v-0.5h0.7V24.3z M83.8,24.3h-0.7v-0.5h0.7
			V24.3z M82.5,24.3h-0.7v-0.5h0.7V24.3z M81.2,24.3h-0.7v-0.5h0.7V24.3z M79.8,24.3h-0.7v-0.5h0.7V24.3z M78.5,24.3h-0.7v-0.5h0.7
			V24.3z M77.2,24.3h-0.7v-0.5h0.7V24.3z M75.9,24.3h-0.7v-0.5h0.7V24.3z M74.5,24.3h-0.7v-0.5h0.7V24.3z M73.2,24.3h-0.7v-0.5h0.7
			V24.3z M71.9,24.3h-0.7v-0.5h0.7V24.3z M70.5,24.3h-0.7v-0.5h0.7V24.3z M69.2,24.3h-0.7v-0.5h0.7V24.3z M67.9,24.3h-0.7v-0.5h0.7
			V24.3z M66.5,24.3h-0.7v-0.5h0.7V24.3z M65.2,24.3h-0.7v-0.5h0.7V24.3z M63.9,24.3h-0.7v-0.5h0.7V24.3z M62.6,24.3h-0.7v-0.5h0.7
			V24.3z M61.2,24.3h-0.7v-0.5h0.7V24.3z M59.9,24.3h-0.7v-0.5h0.7V24.3z M103.2,28.5c0,0.2-0.2,0.3-0.5,0.3H60.3
			c-0.3,0-0.5-0.2-0.5-0.3c0-0.2,0.2-0.3,0.5-0.3h42.5C103,28.2,103.2,28.4,103.2,28.5z M98.1,51.1c0,0.1-0.1,0.2-0.2,0.2
			c-0.1,0-0.2-0.1-0.2-0.2V31.4c0-0.1,0.1-0.2,0.2-0.2c0.1,0,0.2,0.1,0.2,0.2V51.1z M98.7,51.1c0,0.1-0.1,0.2-0.2,0.2
			c-0.1,0-0.2-0.1-0.2-0.2V31.4c0-0.1,0.1-0.2,0.2-0.2c0.1,0,0.2,0.1,0.2,0.2V51.1z M99.3,51.1c0,0.1-0.1,0.2-0.2,0.2
			c-0.1,0-0.2-0.1-0.2-0.2V31.4c0-0.1,0.1-0.2,0.2-0.2c0.1,0,0.2,0.1,0.2,0.2V51.1z M99.9,51.1c0,0.1-0.1,0.2-0.2,0.2
			c-0.1,0-0.2-0.1-0.2-0.2V31.4c0-0.1,0.1-0.2,0.2-0.2c0.1,0,0.2,0.1,0.2,0.2V51.1z M100.5,51.1c0,0.1-0.1,0.2-0.2,0.2
			s-0.2-0.1-0.2-0.2V31.4c0-0.1,0.1-0.2,0.2-0.2s0.2,0.1,0.2,0.2V51.1z M97.5,51.1c0,0.1-0.1,0.2-0.2,0.2c-0.1,0-0.2-0.1-0.2-0.2
			V31.4c0-0.1,0.1-0.2,0.2-0.2c0.1,0,0.2,0.1,0.2,0.2V51.1z M101.7,31.2L101.7,31.2c-0.5,0.2-1,0-1.2-0.5c0-0.1-0.1-0.2-0.1-0.3
			h-0.1l0,0.1c0,0.3-0.1,0.5-0.2,0.5c-0.1,0-0.2-0.2-0.2-0.5l0-0.1h0l0,0.1c0,0.3-0.1,0.5-0.2,0.5c-0.1,0-0.2-0.2-0.2-0.5l0-0.1h0
			l0,0.1c0,0.3-0.1,0.5-0.2,0.5c-0.1,0-0.2-0.2-0.2-0.5c0,0.3-0.1,0.5-0.2,0.5c-0.1,0-0.2-0.2-0.2-0.5c0,0.3-0.1,0.5-0.2,0.5
			c-0.1,0-0.2-0.2-0.2-0.5l0-0.1h0l0,0.1c0,0.3-0.1,0.5-0.2,0.5c-0.1,0-0.2-0.2-0.2-0.5c0,0.3-0.1,0.5-0.2,0.5
			c-0.1,0-0.2-0.2-0.2-0.5l0-0.1h-0.2c0,0.1,0,0.2-0.1,0.3c-0.2,0.5-0.7,0.7-1.2,0.5c-0.5-0.2-0.8-0.8-0.5-1.4
			c0.2-0.4,0.6-0.7,0.9-0.7h5c0.3,0,0.7,0.3,0.9,0.7C102.4,30.4,102.2,31,101.7,31.2z M100.4,30.3c0-0.1,0-0.1,0-0.2
			c0.1-0.2,0.2-0.4,0.4-0.5c0.2-0.1,0.4-0.1,0.6,0c0.2,0.1,0.3,0.2,0.4,0.4c0.1,0.3,0,0.7-0.3,0.9c-0.3,0.1-0.6,0-0.8-0.3
			c-0.1-0.3,0-0.6,0.3-0.7c0.1,0,0.2-0.1,0.3,0c0.1,0,0.2,0.1,0.2,0.2c0,0-0.1,0-0.1,0c-0.2,0-0.3,0.1-0.3,0.3
			c0,0.2,0.1,0.3,0.3,0.3c0.3,0,0.5-0.3,0.4-0.6c-0.1-0.3-0.5-0.4-0.8-0.3c-0.3,0.1-0.5,0.5-0.3,0.9c0.1,0.2,0.2,0.3,0.4,0.4
			c0.2,0.1,0.4,0.1,0.6,0c0.4-0.2,0.6-0.6,0.4-1.1c-0.1-0.2-0.3-0.4-0.5-0.5c-0.1-0.1-0.3-0.1-0.4-0.1h-0.9c0,0.4-0.3,0.7-0.7,0.7
			c-0.3,0-0.5-0.2-0.7-0.4c-0.1,0.2-0.4,0.4-0.7,0.4c-0.4,0-0.7-0.3-0.7-0.7h-0.9c-0.1,0-0.3,0-0.4,0.1c-0.2,0.1-0.4,0.3-0.5,0.5
			c-0.2,0.4,0,0.9,0.4,1.1c0.2,0.1,0.4,0.1,0.6,0c0.2-0.1,0.3-0.2,0.4-0.4c0.1-0.3,0-0.7-0.3-0.9c-0.3-0.1-0.6,0-0.8,0.3
			c-0.1,0.3,0.1,0.6,0.4,0.6c0.2,0,0.3-0.1,0.3-0.3c0-0.2-0.1-0.3-0.3-0.3c-0.1,0-0.1,0-0.1,0c0-0.1,0.1-0.2,0.2-0.2
			c0.1,0,0.2,0,0.3,0c0.3,0.1,0.4,0.4,0.3,0.7c-0.1,0.3-0.5,0.4-0.8,0.3c-0.3-0.1-0.5-0.5-0.3-0.9c0.1-0.2,0.2-0.3,0.4-0.4
			c0.2-0.1,0.4-0.1,0.6,0c0.2,0.1,0.4,0.2,0.4,0.5c0,0.1,0,0.1,0,0.2H100.4z M99,30.4L99,30.4L99,30.4L99,30.4z M98.6,30.4
			L98.6,30.4L98.6,30.4L98.6,30.4z M97.8,30.4L97.8,30.4L97.8,30.4L97.8,30.4z M100.1,29.5h-0.4c0,0.2-0.2,0.4-0.4,0.4
			c-0.1,0-0.1,0-0.2,0c0.1,0.1,0.3,0.2,0.4,0.2C99.8,30,100.1,29.8,100.1,29.5z M99.5,29.5h-0.6c0,0.1,0,0.1,0,0.2
			c0.1,0.1,0.2,0.1,0.3,0.1C99.4,29.8,99.5,29.6,99.5,29.5z M98.7,29.5h-0.6c0,0.2,0.2,0.3,0.3,0.3c0.1,0,0.2-0.1,0.3-0.1
			C98.7,29.6,98.7,29.5,98.7,29.5z M98,29.5h-0.4c0,0.3,0.3,0.6,0.6,0.6c0.2,0,0.3-0.1,0.4-0.2c0,0-0.1,0-0.2,0
			C98.2,29.9,98,29.7,98,29.5z M100.9,52.6C100.9,52.6,100.9,52.6,100.9,52.6l-4.1,0c0,0,0,0,0,0V52c0,0,0,0,0,0h4.1c0,0,0,0,0,0
			V52.6z M101,51.7c0,0.1-0.1,0.1-0.2,0.1h-4.1c-0.1,0-0.2-0.1-0.2-0.1v-0.1c0-0.1,0.1-0.1,0.2-0.1h4.1C101,51.5,101,51.6,101,51.7
			L101,51.7z M101,52.9c0,0.1-0.1,0.1-0.2,0.1h-4.1c-0.1,0-0.2-0.1-0.2-0.1v-0.1c0-0.1,0.1-0.1,0.2-0.1h4.1
			C101,52.7,101,52.8,101,52.9L101,52.9z M86.6,51.1c0,0.1-0.1,0.2-0.2,0.2c-0.1,0-0.2-0.1-0.2-0.2V31.4c0-0.1,0.1-0.2,0.2-0.2
			c0.1,0,0.2,0.1,0.2,0.2V51.1z M87.2,51.1c0,0.1-0.1,0.2-0.2,0.2c-0.1,0-0.2-0.1-0.2-0.2V31.4c0-0.1,0.1-0.2,0.2-0.2
			c0.1,0,0.2,0.1,0.2,0.2V51.1z M87.8,51.1c0,0.1-0.1,0.2-0.2,0.2c-0.1,0-0.2-0.1-0.2-0.2V31.4c0-0.1,0.1-0.2,0.2-0.2
			c0.1,0,0.2,0.1,0.2,0.2V51.1z M88.3,51.1c0,0.1-0.1,0.2-0.2,0.2c-0.1,0-0.2-0.1-0.2-0.2V31.4c0-0.1,0.1-0.2,0.2-0.2
			c0.1,0,0.2,0.1,0.2,0.2V51.1z M88.9,51.1c0,0.1-0.1,0.2-0.2,0.2c-0.1,0-0.2-0.1-0.2-0.2V31.4c0-0.1,0.1-0.2,0.2-0.2
			c0.1,0,0.2,0.1,0.2,0.2V51.1z M86,51.1c0,0.1-0.1,0.2-0.2,0.2c-0.1,0-0.2-0.1-0.2-0.2V31.4c0-0.1,0.1-0.2,0.2-0.2
			c0.1,0,0.2,0.1,0.2,0.2V51.1z M90.1,31.2L90.1,31.2c-0.5,0.2-1,0-1.2-0.5c0-0.1-0.1-0.2-0.1-0.3h-0.1l0,0.1c0,0.3-0.1,0.5-0.2,0.5
			c-0.1,0-0.2-0.2-0.2-0.5l0-0.1h0l0,0.1c0,0.3-0.1,0.5-0.2,0.5c-0.1,0-0.2-0.2-0.2-0.5l0-0.1h0l0,0.1c0,0.3-0.1,0.5-0.2,0.5
			c-0.1,0-0.2-0.2-0.2-0.5c0,0.3-0.1,0.5-0.2,0.5c-0.1,0-0.2-0.2-0.2-0.5c0,0.3-0.1,0.5-0.2,0.5c-0.1,0-0.2-0.2-0.2-0.5l0-0.1h0
			l0,0.1c0,0.3-0.1,0.5-0.2,0.5c-0.1,0-0.2-0.2-0.2-0.5c0,0.3-0.1,0.5-0.2,0.5c-0.1,0-0.2-0.2-0.2-0.5l0-0.1h-0.2
			c0,0.1,0,0.2-0.1,0.3c-0.2,0.5-0.7,0.7-1.2,0.5c-0.5-0.2-0.8-0.8-0.5-1.4c0.2-0.4,0.6-0.7,0.9-0.7h5c0.3,0,0.7,0.3,0.9,0.7
			C90.9,30.4,90.7,31,90.1,31.2z M88.9,30.3c0-0.1,0-0.1,0-0.2c0.1-0.2,0.2-0.4,0.4-0.5c0.2-0.1,0.4-0.1,0.6,0
			c0.2,0.1,0.3,0.2,0.4,0.4c0.1,0.3,0,0.7-0.3,0.9c-0.3,0.1-0.6,0-0.8-0.3c-0.1-0.3,0-0.6,0.3-0.7c0.1,0,0.2-0.1,0.3,0
			c0.1,0,0.2,0.1,0.2,0.2c0,0-0.1,0-0.1,0c-0.2,0-0.3,0.1-0.3,0.3c0,0.2,0.1,0.3,0.3,0.3c0.3,0,0.5-0.3,0.4-0.6
			c-0.1-0.3-0.5-0.4-0.8-0.3c-0.3,0.1-0.5,0.5-0.3,0.9c0.1,0.2,0.2,0.3,0.4,0.4c0.2,0.1,0.4,0.1,0.6,0c0.4-0.2,0.6-0.6,0.4-1.1
			c-0.1-0.2-0.3-0.4-0.5-0.5c-0.1-0.1-0.3-0.1-0.4-0.1h-0.9c0,0.4-0.3,0.7-0.7,0.7c-0.3,0-0.5-0.2-0.7-0.4c-0.1,0.2-0.4,0.4-0.7,0.4
			c-0.4,0-0.7-0.3-0.7-0.7H85c-0.1,0-0.3,0-0.4,0.1c-0.2,0.1-0.4,0.3-0.5,0.5c-0.2,0.4,0,0.9,0.4,1.1c0.2,0.1,0.4,0.1,0.6,0
			c0.2-0.1,0.3-0.2,0.4-0.4c0.1-0.3,0-0.7-0.3-0.9c-0.3-0.1-0.6,0-0.8,0.3c-0.1,0.3,0.1,0.6,0.4,0.6c0.2,0,0.3-0.1,0.3-0.3
			c0-0.2-0.1-0.3-0.3-0.3c-0.1,0-0.1,0-0.1,0c0-0.1,0.1-0.2,0.2-0.2c0.1,0,0.2,0,0.3,0c0.3,0.1,0.4,0.4,0.3,0.7
			c-0.1,0.3-0.5,0.4-0.8,0.3c-0.3-0.1-0.5-0.5-0.3-0.9c0.1-0.2,0.2-0.3,0.4-0.4c0.2-0.1,0.4-0.1,0.6,0c0.2,0.1,0.4,0.2,0.4,0.5
			c0,0.1,0,0.1,0,0.2H88.9z M87.5,30.4L87.5,30.4L87.5,30.4L87.5,30.4z M87.1,30.4L87.1,30.4L87.1,30.4L87.1,30.4z M86.3,30.4
			L86.3,30.4L86.3,30.4L86.3,30.4z M88.5,29.5h-0.4c0,0.2-0.2,0.4-0.4,0.4c-0.1,0-0.1,0-0.2,0c0.1,0.1,0.3,0.2,0.4,0.2
			C88.2,30,88.5,29.8,88.5,29.5z M88,29.5h-0.6c0,0.1,0,0.1,0,0.2c0.1,0.1,0.2,0.1,0.3,0.1C87.8,29.8,88,29.6,88,29.5z M87.2,29.5
			h-0.6c0,0.2,0.2,0.3,0.3,0.3c0.1,0,0.2-0.1,0.3-0.1C87.2,29.6,87.2,29.5,87.2,29.5z M86.5,29.5H86c0,0.3,0.3,0.6,0.6,0.6
			c0.2,0,0.3-0.1,0.4-0.2c0,0-0.1,0-0.2,0C86.7,29.9,86.5,29.7,86.5,29.5z M89.3,52.6C89.3,52.6,89.3,52.6,89.3,52.6l-4.1,0
			c0,0,0,0,0,0V52c0,0,0,0,0,0h4.1c0,0,0,0,0,0V52.6z M89.5,51.7c0,0.1-0.1,0.1-0.2,0.1h-4.1c-0.1,0-0.2-0.1-0.2-0.1v-0.1
			c0-0.1,0.1-0.1,0.2-0.1h4.1C89.4,51.5,89.5,51.6,89.5,51.7L89.5,51.7z M89.5,52.9c0,0.1-0.1,0.1-0.2,0.1h-4.1
			c-0.1,0-0.2-0.1-0.2-0.1v-0.1c0-0.1,0.1-0.1,0.2-0.1h4.1C89.4,52.7,89.5,52.8,89.5,52.9L89.5,52.9z M75,51.1
			c0,0.1-0.1,0.2-0.2,0.2c-0.1,0-0.2-0.1-0.2-0.2V31.4c0-0.1,0.1-0.2,0.2-0.2c0.1,0,0.2,0.1,0.2,0.2V51.1z M75.6,51.1
			c0,0.1-0.1,0.2-0.2,0.2c-0.1,0-0.2-0.1-0.2-0.2V31.4c0-0.1,0.1-0.2,0.2-0.2c0.1,0,0.2,0.1,0.2,0.2V51.1z M76.2,51.1
			c0,0.1-0.1,0.2-0.2,0.2c-0.1,0-0.2-0.1-0.2-0.2V31.4c0-0.1,0.1-0.2,0.2-0.2c0.1,0,0.2,0.1,0.2,0.2V51.1z M76.8,51.1
			c0,0.1-0.1,0.2-0.2,0.2c-0.1,0-0.2-0.1-0.2-0.2V31.4c0-0.1,0.1-0.2,0.2-0.2c0.1,0,0.2,0.1,0.2,0.2V51.1z M77.4,51.1
			c0,0.1-0.1,0.2-0.2,0.2c-0.1,0-0.2-0.1-0.2-0.2V31.4c0-0.1,0.1-0.2,0.2-0.2c0.1,0,0.2,0.1,0.2,0.2V51.1z M74.4,51.1
			c0,0.1-0.1,0.2-0.2,0.2c-0.1,0-0.2-0.1-0.2-0.2V31.4c0-0.1,0.1-0.2,0.2-0.2c0.1,0,0.2,0.1,0.2,0.2V51.1z M78.6,31.2L78.6,31.2
			c-0.5,0.2-1,0-1.2-0.5c0-0.1-0.1-0.2-0.1-0.3h-0.1l0,0.1c0,0.3-0.1,0.5-0.2,0.5c-0.1,0-0.2-0.2-0.2-0.5l0-0.1h0l0,0.1
			c0,0.3-0.1,0.5-0.2,0.5c-0.1,0-0.2-0.2-0.2-0.5l0-0.1h0l0,0.1c0,0.3-0.1,0.5-0.2,0.5c-0.1,0-0.2-0.2-0.2-0.5
			c0,0.3-0.1,0.5-0.2,0.5c-0.1,0-0.2-0.2-0.2-0.5c0,0.3-0.1,0.5-0.2,0.5c-0.1,0-0.2-0.2-0.2-0.5l0-0.1h0l0,0.1
			c0,0.3-0.1,0.5-0.2,0.5c-0.1,0-0.2-0.2-0.2-0.5c0,0.3-0.1,0.5-0.2,0.5c-0.1,0-0.2-0.2-0.2-0.5l0-0.1h-0.2c0,0.1,0,0.2-0.1,0.3
			c-0.2,0.5-0.7,0.7-1.2,0.5c-0.5-0.2-0.8-0.8-0.5-1.4c0.2-0.4,0.6-0.7,0.9-0.7h5c0.3,0,0.7,0.3,0.9,0.7
			C79.3,30.4,79.1,31,78.6,31.2z M77.3,30.3c0-0.1,0-0.1,0-0.2c0.1-0.2,0.2-0.4,0.4-0.5c0.2-0.1,0.4-0.1,0.6,0
			c0.2,0.1,0.3,0.2,0.4,0.4c0.1,0.3,0,0.7-0.3,0.9c-0.3,0.1-0.6,0-0.8-0.3c-0.1-0.3,0-0.6,0.3-0.7c0.1,0,0.2-0.1,0.3,0
			c0.1,0,0.2,0.1,0.2,0.2c0,0-0.1,0-0.1,0c-0.2,0-0.3,0.1-0.3,0.3c0,0.2,0.1,0.3,0.3,0.3c0.3,0,0.5-0.3,0.4-0.6
			c-0.1-0.3-0.5-0.4-0.8-0.3c-0.3,0.1-0.5,0.5-0.3,0.9c0.1,0.2,0.2,0.3,0.4,0.4c0.2,0.1,0.4,0.1,0.6,0c0.4-0.2,0.6-0.6,0.4-1.1
			c-0.1-0.2-0.3-0.4-0.5-0.5c-0.1-0.1-0.3-0.1-0.4-0.1h-0.9c0,0.4-0.3,0.7-0.7,0.7c-0.3,0-0.5-0.2-0.7-0.4c-0.1,0.2-0.4,0.4-0.7,0.4
			c-0.4,0-0.7-0.3-0.7-0.7h-0.9c-0.1,0-0.3,0-0.4,0.1c-0.2,0.1-0.4,0.3-0.5,0.5c-0.2,0.4,0,0.9,0.4,1.1c0.2,0.1,0.4,0.1,0.6,0
			c0.2-0.1,0.3-0.2,0.4-0.4c0.1-0.3,0-0.7-0.3-0.9c-0.3-0.1-0.6,0-0.8,0.3c-0.1,0.3,0.1,0.6,0.4,0.6c0.2,0,0.3-0.1,0.3-0.3
			c0-0.2-0.1-0.3-0.3-0.3c-0.1,0-0.1,0-0.1,0c0-0.1,0.1-0.2,0.2-0.2c0.1,0,0.2,0,0.3,0c0.3,0.1,0.4,0.4,0.3,0.7
			c-0.1,0.3-0.5,0.4-0.8,0.3c-0.3-0.1-0.5-0.5-0.3-0.9c0.1-0.2,0.2-0.3,0.4-0.4c0.2-0.1,0.4-0.1,0.6,0c0.2,0.1,0.4,0.2,0.4,0.5
			c0,0.1,0,0.1,0,0.2H77.3z M75.9,30.4L75.9,30.4L75.9,30.4L75.9,30.4z M75.5,30.4L75.5,30.4L75.5,30.4L75.5,30.4z M74.7,30.4
			L74.7,30.4L74.7,30.4L74.7,30.4z M77,29.5h-0.4c0,0.2-0.2,0.4-0.4,0.4c-0.1,0-0.1,0-0.2,0c0.1,0.1,0.3,0.2,0.4,0.2
			C76.7,30,77,29.8,77,29.5z M76.4,29.5h-0.6c0,0.1,0,0.1,0,0.2c0.1,0.1,0.2,0.1,0.3,0.1C76.3,29.8,76.4,29.6,76.4,29.5z M75.6,29.5
			H75c0,0.2,0.2,0.3,0.3,0.3c0.1,0,0.2-0.1,0.3-0.1C75.6,29.6,75.6,29.5,75.6,29.5z M74.9,29.5h-0.4c0,0.3,0.3,0.6,0.6,0.6
			c0.2,0,0.3-0.1,0.4-0.2c0,0-0.1,0-0.2,0C75.1,29.9,74.9,29.7,74.9,29.5z M77.8,52.6C77.8,52.6,77.8,52.6,77.8,52.6l-4.1,0
			c0,0,0,0,0,0V52c0,0,0,0,0,0h4.1c0,0,0,0,0,0V52.6z M78,51.7c0,0.1-0.1,0.1-0.2,0.1h-4.1c-0.1,0-0.2-0.1-0.2-0.1v-0.1
			c0-0.1,0.1-0.1,0.2-0.1h4.1C77.9,51.5,78,51.6,78,51.7L78,51.7z M78,52.9c0,0.1-0.1,0.1-0.2,0.1h-4.1c-0.1,0-0.2-0.1-0.2-0.1v-0.1
			c0-0.1,0.1-0.1,0.2-0.1h4.1C77.9,52.7,78,52.8,78,52.9L78,52.9z M63.5,51.1c0,0.1-0.1,0.2-0.2,0.2c-0.1,0-0.2-0.1-0.2-0.2V31.4
			c0-0.1,0.1-0.2,0.2-0.2c0.1,0,0.2,0.1,0.2,0.2V51.1z M64.1,51.1c0,0.1-0.1,0.2-0.2,0.2c-0.1,0-0.2-0.1-0.2-0.2V31.4
			c0-0.1,0.1-0.2,0.2-0.2c0.1,0,0.2,0.1,0.2,0.2V51.1z M64.7,51.1c0,0.1-0.1,0.2-0.2,0.2c-0.1,0-0.2-0.1-0.2-0.2V31.4
			c0-0.1,0.1-0.2,0.2-0.2c0.1,0,0.2,0.1,0.2,0.2V51.1z M65.2,51.1c0,0.1-0.1,0.2-0.2,0.2c-0.1,0-0.2-0.1-0.2-0.2V31.4
			c0-0.1,0.1-0.2,0.2-0.2c0.1,0,0.2,0.1,0.2,0.2V51.1z M65.8,51.1c0,0.1-0.1,0.2-0.2,0.2s-0.2-0.1-0.2-0.2V31.4
			c0-0.1,0.1-0.2,0.2-0.2s0.2,0.1,0.2,0.2V51.1z M62.9,51.1c0,0.1-0.1,0.2-0.2,0.2c-0.1,0-0.2-0.1-0.2-0.2V31.4
			c0-0.1,0.1-0.2,0.2-0.2c0.1,0,0.2,0.1,0.2,0.2V51.1z M67,31.2L67,31.2c-0.5,0.2-1,0-1.2-0.5c0-0.1-0.1-0.2-0.1-0.3h-0.1l0,0.1
			c0,0.3-0.1,0.5-0.2,0.5c-0.1,0-0.2-0.2-0.2-0.5l0-0.1h0l0,0.1c0,0.3-0.1,0.5-0.2,0.5c-0.1,0-0.2-0.2-0.2-0.5l0-0.1h0l0,0.1
			c0,0.3-0.1,0.5-0.2,0.5c-0.1,0-0.2-0.2-0.2-0.5c0,0.3-0.1,0.5-0.2,0.5c-0.1,0-0.2-0.2-0.2-0.5c0,0.3-0.1,0.5-0.2,0.5
			c-0.1,0-0.2-0.2-0.2-0.5l0-0.1h0l0,0.1c0,0.3-0.1,0.5-0.2,0.5c-0.1,0-0.2-0.2-0.2-0.5c0,0.3-0.1,0.5-0.2,0.5
			c-0.1,0-0.2-0.2-0.2-0.5l0-0.1h-0.2c0,0.1,0,0.2-0.1,0.3c-0.2,0.5-0.7,0.7-1.2,0.5c-0.5-0.2-0.8-0.8-0.5-1.4
			c0.2-0.4,0.6-0.7,0.9-0.7h5c0.3,0,0.7,0.3,0.9,0.7C67.8,30.4,67.6,31,67,31.2z M65.8,30.3c0-0.1,0-0.1,0-0.2
			c0.1-0.2,0.2-0.4,0.4-0.5c0.2-0.1,0.4-0.1,0.6,0c0.2,0.1,0.3,0.2,0.4,0.4c0.1,0.3,0,0.7-0.3,0.9c-0.3,0.1-0.6,0-0.8-0.3
			c-0.1-0.3,0-0.6,0.3-0.7c0.1,0,0.2-0.1,0.3,0c0.1,0,0.2,0.1,0.2,0.2c0,0-0.1,0-0.1,0c-0.2,0-0.3,0.1-0.3,0.3
			c0,0.2,0.1,0.3,0.3,0.3c0.3,0,0.5-0.3,0.4-0.6c-0.1-0.3-0.5-0.4-0.8-0.3c-0.3,0.1-0.5,0.5-0.3,0.9c0.1,0.2,0.2,0.3,0.4,0.4
			c0.2,0.1,0.4,0.1,0.6,0c0.4-0.2,0.6-0.6,0.4-1.1c-0.1-0.2-0.3-0.4-0.5-0.5c-0.1-0.1-0.3-0.1-0.4-0.1h-0.9c0,0.4-0.3,0.7-0.7,0.7
			c-0.3,0-0.5-0.2-0.7-0.4c-0.1,0.2-0.4,0.4-0.7,0.4c-0.4,0-0.7-0.3-0.7-0.7h-0.9c-0.1,0-0.3,0-0.4,0.1c-0.2,0.1-0.4,0.3-0.5,0.5
			c-0.2,0.4,0,0.9,0.4,1.1c0.2,0.1,0.4,0.1,0.6,0c0.2-0.1,0.3-0.2,0.4-0.4c0.1-0.3,0-0.7-0.3-0.9c-0.3-0.1-0.6,0-0.8,0.3
			c-0.1,0.3,0.1,0.6,0.4,0.6c0.2,0,0.3-0.1,0.3-0.3c0-0.2-0.1-0.3-0.3-0.3c-0.1,0-0.1,0-0.1,0c0-0.1,0.1-0.2,0.2-0.2
			c0.1,0,0.2,0,0.3,0c0.3,0.1,0.4,0.4,0.3,0.7c-0.1,0.3-0.5,0.4-0.8,0.3c-0.3-0.1-0.5-0.5-0.3-0.9c0.1-0.2,0.2-0.3,0.4-0.4
			c0.2-0.1,0.4-0.1,0.6,0c0.2,0.1,0.4,0.2,0.4,0.5c0,0.1,0,0.1,0,0.2H65.8z M64.4,30.4L64.4,30.4L64.4,30.4L64.4,30.4z M64,30.4
			L64,30.4L64,30.4L64,30.4z M63.2,30.4L63.2,30.4L63.2,30.4L63.2,30.4z M65.4,29.5H65c0,0.2-0.2,0.4-0.4,0.4c-0.1,0-0.1,0-0.2,0
			c0.1,0.1,0.3,0.2,0.4,0.2C65.2,30,65.4,29.8,65.4,29.5z M64.9,29.5h-0.6c0,0.1,0,0.1,0,0.2c0.1,0.1,0.2,0.1,0.3,0.1
			C64.7,29.8,64.9,29.6,64.9,29.5z M64.1,29.5h-0.6c0,0.2,0.2,0.3,0.3,0.3c0.1,0,0.2-0.1,0.3-0.1C64.1,29.6,64.1,29.5,64.1,29.5z
			 M63.4,29.5h-0.4c0,0.3,0.3,0.6,0.6,0.6c0.2,0,0.3-0.1,0.4-0.2c0,0-0.1,0-0.2,0C63.6,29.9,63.4,29.7,63.4,29.5z M66.2,52.6
			C66.2,52.6,66.2,52.6,66.2,52.6l-4.1,0c0,0,0,0,0,0V52c0,0,0,0,0,0h4.1c0,0,0,0,0,0V52.6z M66.4,51.7c0,0.1-0.1,0.1-0.2,0.1h-4.1
			c-0.1,0-0.2-0.1-0.2-0.1v-0.1c0-0.1,0.1-0.1,0.2-0.1h4.1C66.3,51.5,66.4,51.6,66.4,51.7L66.4,51.7z M66.4,52.9
			c0,0.1-0.1,0.1-0.2,0.1h-4.1c-0.1,0-0.2-0.1-0.2-0.1v-0.1c0-0.1,0.1-0.1,0.2-0.1h4.1C66.3,52.7,66.4,52.8,66.4,52.9L66.4,52.9z
			 M104.4,56.4v-0.2c0.1,0,0.3-0.1,0.3-0.2v-0.8c0-0.1-0.1-0.2-0.3-0.2h-1.6h-1H61.2h-1.3h-1.3c-0.1,0-0.3,0.1-0.3,0.2V56
			c0,0.1,0.1,0.2,0.3,0.2v0.2H104.4z M101.8,54.7v-0.2c0.1,0,0.3-0.1,0.3-0.2v-0.8c0-0.1-0.1-0.2-0.3-0.2H61.2
			c-0.1,0-0.3,0.1-0.3,0.2v0.8c0,0.1,0.1,0.2,0.3,0.2v0.2H101.8z"/>
		<path class="st1" d="M109.2,64.9c1.9-0.6,4.7-2.1,6.6-2.7c-1.5,0.2-2.1-1.3-1.1-2.5C113.1,61.6,110.8,63,109.2,64.9"/>
		<path class="st1" d="M96.7,59c-0.1,0-0.1,0.1-0.3,0.1l0-0.1 M84.7,71.3c0.2-0.2,0.4-0.2,0.5-0.2 M56.5,59.1L56.5,59.1 M60.8,59
			c0.3,0.2,0.5,0.4,1,0.1c0.1,0,0.3,0,0.5,0 M61.2,59.9c-0.3-0.3-0.5-0.4-0.6-0.9 M98.1,61.7L98.1,61.7 M98.5,63l-0.2,0.2l0,0
			 M98.1,63.8c0,0.1,0,0.2,0,0.2 M90.6,65.6l-0.5,0c-0.1,0.3-0.2,0.6-0.4,0.9l0.3,0.1c0.5-0.4,0.6-0.5,1.2-0.2
			c0.4-0.2,0.7,0.2,0.9,0.5l0.1,0.1c-0.2,0.2-0.4,0.3-0.7,0.2c-0.2,0-0.4,0-0.5-0.1c-0.7,0-1.5,0.2-1.3-0.8l0-0.1
			c-0.1-0.1-0.2-0.1-0.3-0.2c-0.2,0.3-0.3,0.5-0.5,0.6l0,0c0.1,0.1,0.2,0.1,0.3,0.2c0.1,0,0.2,0,0.3,0c0.4,0.8-0.2,0.8-0.7,1
			c-0.1,0.1-0.3,0.2-0.4,0.3c0,0-0.1,0.1-0.2,0.1c-0.2,0.1-0.4,0.1-0.5,0c0,0-0.1,0-0.1,0c-0.1,0-0.2-0.1-0.2-0.1c0,0,0,0.1,0,0.1
			c0,0.2-0.1,0.3-0.2,0.4v0.1L87,69c0.3-0.1,0.6-0.2,1-0.4c0.2-0.1,0.4-0.1,0.5-0.2c0.7-0.5,1.6-1.1,1.7-1.1c0.1,0,0.3,0.3,0.5,0.6
			c0,0,0.1,0,0.1,0c-0.1-0.1-0.3-0.3-0.3-0.6c0.4-0.1,1.6-0.5,1,0.4c0,0.1-0.1,0.1-0.1,0.2c0.1,0,0.2,0,0.2,0.1
			c0.2-0.4,0.4-0.8,0.5-1.2c0.2,0.1,0.3,0.2,0.5,0.3c-0.1-0.1-0.1-0.2-0.1-0.4c-0.4-0.1-0.7-0.4-1-0.6C91.3,66,90.9,65.8,90.6,65.6z
			 M90.2,63.3L90.2,63.3l0.1,0c0-0.2,0.1-0.3,0.2-0.5c-0.1,0-0.1-0.1-0.2-0.1c-0.1-0.1,0-0.1-0.1-0.1c-0.1,0.1,0,0.2,0,0.4
			L90.2,63.3z M88.2,61l0.3,0c0.2,0.7,1.1,0.5,1.7,0.5c0.6-0.1,0.5,0,1,0.2c-0.6,0-1.2,0.1-1.7,0.1c-0.4-0.1-0.7-0.2-1.1-0.3
			C88.4,61.3,88.3,61.2,88.2,61z M92.3,61.6c0.1-0.1,0.2-0.2,0.3-0.3c0.3-0.1,0.5-0.1,0.8-0.1l-0.1,0.1v0.1c0,0-0.1,0.1-0.2,0.1
			C92.9,61.6,92.6,61.6,92.3,61.6z M92.5,64c0.1,0.1,0.1,0.2,0.2,0.3c-0.3,0-0.5,0-0.8,0L91.8,64L92.5,64z M86.7,67.8
			c0,0.1,0,0.2,0.1,0.4c-0.2,0.1-0.3,0.2-0.5,0.4c-0.2,0.5-0.3,1.2-0.4,2.1c-0.1-0.4-0.1-0.8-0.4-0.9l0,0c0.1-0.3,0.2-0.5,0.2-0.8
			c0.1-0.1,0.3-0.2,0.4-0.4l0-0.1c0.1-0.3-0.1-0.6-0.2-0.8c-0.1-0.4-0.3-0.6-0.6-0.9c0-0.2-0.1-0.4-0.1-0.6c0.1,0.1,0.2,0.1,0.3,0.2
			c0.2,0.4,0.6,0.9,0.8,1.1c0,0,0.1,0.1,0.1,0.1l0-0.3c0.1-0.2,0.2-0.3,0.3-0.5c0.1,0.1,0.2,0.2,0.4,0.3l-0.1,0.1
			c-0.2-0.1-0.4,0.1-0.5,0.4C86.5,67.8,86.6,67.8,86.7,67.8z M83.6,59.1l0.2,0.2c-0.4,0.2-0.7,0.4-0.8,0.5c-0.1-0.2-0.2-0.4-0.3-0.7
			C83,59.3,83.3,59.2,83.6,59.1z M86.8,59.8l0.3,0c0.1,0.4,0.1,0.7,0.5,0.8c-0.2,0.2-0.4,0.5-0.3,0.7c-0.3,0.2-0.5,0.5-0.3,0.9
			c-0.2-0.1-0.4-0.2-0.6-0.3l0.2-0.1c0.2-0.1,0.2-0.3,0-0.4c-0.1-0.1-0.4,0.1-0.6,0.2c-0.1-0.1-0.1-0.1-0.2-0.2
			c0.3-0.2,0.6-0.1,0.9-0.2C87.3,60.9,87,60.3,86.8,59.8z M67.9,63.2l-0.2-0.3l0.9,0.1c0.3,0.3,0.6,0.5,1,0.1
			c0.7,0.1,1.1-0.1,1.2-0.8l0.1,0c-0.1,0.3-0.1,0.5,0,0.6c-0.3,0.1-0.8,0.3-1,0.5c-0.6-0.1-1.2,0-1.6-0.2
			C68.2,63.3,68,63.2,67.9,63.2z M80.4,67.7c-0.2,0.1-0.4,0.2-0.5,0.3c0.2-0.4,0.4-0.7,0.6-1l0.3,0C80.7,67.1,80.5,67.4,80.4,67.7z
			 M79.4,68.6c0,0.1-0.1,0.2-0.1,0.3c-0.2,0-0.4,0-0.7,0.1c0-0.2-0.1-0.3-0.1-0.5l0.1,0C79.2,68.3,79.2,68.7,79.4,68.6z M82.2,65.7
			l0.2-0.3c0.4-0.1,0.7-0.2,1.1-0.3c0,0.1,0.1,0.2,0.1,0.2C83.1,65.5,82.6,65.6,82.2,65.7L82.2,65.7z M83.3,61.4l-0.1-0.6
			c0.2,0.2,0.7,0.5,1,0.6c-0.1,0.1-0.1,0.3-0.2,0.5C83.8,61.8,83.5,61.6,83.3,61.4z M75.4,64.9c0.1,0.1,0.1,0.1,0.2,0.2
			c-0.4,0-0.9,0-1.2,0.2c0.1-0.1,0.2-0.2,0.2-0.4c0.2,0,0.4,0,0.5,0C75.3,65,75.3,65,75.4,64.9z M74.1,67c-0.1,0-0.2,0-0.3,0l0-0.2
			c-0.1-0.1-0.4-0.1-0.6-0.2c0.2-0.2,0.2-0.2,0.4-0.4c0.1-0.2,0.3-0.3,0.4-0.4C73.8,66.2,73.9,66.6,74.1,67z M71.7,67.9L71.4,68
			c0.1-0.1,0.1-0.3,0.2-0.5c0.1,0,0.1,0,0.2,0C71.8,67.7,71.7,67.8,71.7,67.9z M72.4,62.4c-0.1,0-0.3,0-0.4,0c0.1-0.1,0-0.3,0-0.4
			l0.3,0c0.1,0.1,0.2,0.1,0.3,0.2c0.1-0.1,0.1-0.2,0.1-0.3c0.1,0.3,0.2,0.3,0.4,0.5c0.1,0.1,0.1,0.2,0.2,0.2c-0.1,0-0.2-0.1-0.2-0.1
			c-0.6-0.5-1.4,1.9-0.4,1.3c0.1,0,0.2,0.1,0.2,0.1c-0.1,0.1-0.2,0.2-0.4,0.3c-0.7-0.1-0.9,0-1.5,0.2c-0.2,0-0.4-0.1-0.6-0.1
			c0.1-0.1,0.3-0.2,0.4-0.3c0.2,0,0.4,0,0.5,0c0.8,0,0.9-1,0.8-1.3C72.3,62.7,72.4,62.5,72.4,62.4z M83.2,71.1c-0.2,0-0.4,0-0.5,0
			c0,0-0.1,0.1-0.2,0.1c-0.4,0.1-0.9,0.1-1.3,0.2c0,0.2-0.1,0.4-0.2,0.6c0.1-0.1,0.3-0.2,0.5-0.3c0.3-0.1,0.7-0.3,1-0.4
			c0.4-0.1,0.5,0,0.8,0.4l0.3,0C83.4,71.5,83.2,71.3,83.2,71.1C83.2,71.2,83.2,71.1,83.2,71.1z M70.1,65.2c0.1,0.1,0.1,0.2,0.2,0.3
			c0.3,0.1,0.6,0.1,0.9,0.2c0-0.1,0.1-0.1,0.1-0.2C70.9,65.4,70.5,65.3,70.1,65.2z M74.5,62.6c0.1,0,0.2-0.1,0.3-0.1
			c0,0-0.1-0.1-0.2-0.1c-0.1-0.1-0.2-0.2-0.3-0.3c0,0,0,0.1-0.1,0.1c-0.1,0.1-0.2,0.2-0.2,0.2l0.1,0.1c0,0,0.1,0.1,0.1,0.1
			C74.4,62.7,74.4,62.7,74.5,62.6z M86.3,62.6c-0.1,0.1-0.1,0.2-0.2,0.3l0,0.2c-0.2,0.1,0,0-0.2,0.1l-0.2,0.2
			c-0.1-0.1-0.2-0.2-0.3-0.3c0.1-0.1,0.2-0.2,0.2-0.3l0.1-0.3C86,62.6,86.2,62.6,86.3,62.6z M85.3,66l0.3,0.3
			c-0.3-0.1-0.5-0.1-0.7,0c-0.1-0.1-0.2-0.1-0.3-0.2L85.3,66z M86.5,70.2l0.2,0.3l-0.2,0.2c-0.1-0.1-0.2-0.1-0.3-0.2L86.5,70.2z
			 M89.8,60.5l-0.1,0.3l-0.3,0c0-0.1,0-0.2,0-0.3C89.5,60.5,89.6,60.5,89.8,60.5z M89.1,62.8c0,0.2,0.2,0.3,0.3,0.4
			c-0.2,0-0.5,0.2-0.6,0.4c0,0.2,0,0.6,0.1,1.2c-0.1,0.1-0.2,0.2-0.3,0.3l-0.1-0.7h0.1c0.1-1.1-0.1-1.2-1-1.7
			C88.1,62.7,88.6,62.8,89.1,62.8z M89.4,62.2c0-0.1-0.1-0.2-0.1-0.3l0,0c-0.1,0.1-0.2,0-0.3,0l0,0c0,0.2,0,0.3,0,0.5
			C89.1,62.3,89.2,62.2,89.4,62.2z M89.2,61.5c0-0.1,0-0.1,0-0.2l0,0c-0.1,0-0.3,0-0.4-0.1l0,0l0,0.1C89,61.3,89.1,61.4,89.2,61.5z
			 M66.8,60.9c0-0.1-0.1-0.2-0.1-0.2c0.3,0,0.6,0,0.9-0.1l0.4,0.2c-0.3,0-0.5,0-0.6,0.1C67.1,60.8,67,60.8,66.8,60.9z M62,61.3
			c0,0.1-0.1,0.3-0.1,0.4c-0.1-0.1-0.3-0.2-0.4-0.3c0-0.1,0-0.3,0-0.5C61.6,61.1,61.8,61.2,62,61.3z M60.1,61.3l0.2,0
			c0,0,0.1,0.1,0.1,0.1c0,0,0,0,0,0l0.3,0.4c-0.1-0.2,0-0.1-0.2-0.5c-0.1-0.2-0.2-0.3,0-0.5c0.1-0.1,0.3-0.2,0.4-0.2
			c0-0.1,0.1-0.2,0.1-0.3c-0.2,0-0.5,0-0.6-0.2c-0.1,0.1-0.1,0.1-0.2,0.1c0,0.1,0,0.2,0,0.4C60.3,61.1,60.3,61.2,60.1,61.3z
			 M61.8,63.2c0,0.1,0.1,0.2,0.2,0.3l0,0c0.2,0,0.4,0,0.6,0c-0.1-0.1-0.2-0.2-0.2-0.3C62.1,63.1,61.9,63.2,61.8,63.2z M65,63.3
			c-0.1,0-0.1,0.1-0.2,0.1c-0.1,0.1-0.2,0.1-0.3,0.2c0,0.1,0,0.2,0,0.3l0,0.2c0.1-0.1,0.2-0.2,0.4-0.3C64.9,63.6,65,63.5,65,63.3
			C65,63.3,65,63.3,65,63.3z M68.4,64.5c0.1,0,0.2,0.1,0.3,0.1c0-0.1-0.1-0.2-0.1-0.3l0-0.1l0.1,0c-0.2-0.2-0.1-0.3-0.1-0.5l-0.1,0
			l-0.1-0.1l0,0.1l-0.5-0.1c0,0.1,0,0.3,0,0.4c0.2,0.3,0.3,1.6,0.4,2c0.1-0.1,0.2-0.2,0.3-0.3l-0.1-0.9
			C68.4,64.7,68.4,64.6,68.4,64.5z M97.3,60.6c0.2-0.1,0.3-0.3,0.4-0.5h0.1c0.1,0.2,0.1,0.4,0.1,0.7C97.8,60.8,97.4,60.7,97.3,60.6
			C97.3,60.6,97.3,60.6,97.3,60.6z M102.9,61c0,0.2-0.1,0.3-0.1,0.5c-0.2,0-0.4,0.1-0.5,0.2l0-0.4C102.5,61.1,102.7,61.1,102.9,61z
			 M102.4,62.5c0,0.1,0.1,0.1,0.1,0.2l0,0c0.1-0.1,0.3-0.1,0.4-0.1c0-0.1-0.1-0.2-0.1-0.3l-0.1-0.1L102.4,62.5z M63.1,59h-0.2
			c0,0.1,0,0.2,0.1,0.3l0.2-0.1l0.1,0L63.1,59L63.1,59z M65.5,59h-0.4l0,0c-0.2,0.3-0.3,0.1-0.5,0h-0.1c0.1,0.2,0.3,0.4,0.4,0.6
			c0.1,0,0.2,0,0.4,0l0-0.3l0.1,0.1c0.3,0.1,0.6,0.6,0.9,1l0,0c0.1,0.3,0.2,0.7,0.3,1.1l0.1,0.1l0,0.1c0.1,0.2,0,0.7-0.2,0.7
			c0,0,0,0-0.1,0l0,0c0,0.1-0.1,0.1-0.2,0.2c0.2-0.1,0.4-0.1,0.5-0.2c0.2-0.1,0.4-0.2,0.7-0.3c-0.1-0.1-0.1-0.2-0.2-0.3
			c0,0,0.1-0.1,0.2-0.1c0-0.1-0.1-0.2-0.1-0.3c-0.2,0-0.3-0.1-0.3-0.1c0,0-0.1-0.1-0.1-0.1l-0.1-0.1l0-0.1l0,0
			c-0.1-0.3-0.1-0.7-0.2-1l-0.1-0.1c0-0.1,0-0.3,0-0.4c0,0.1,0,0.2,0,0.4l-0.2-0.3C66,59.8,65.4,59.6,65.5,59z M66,59L66,59L66,59
			L66,59z M72.8,59h-1.1c-0.3,0.1-0.5,0.1-0.9,0.1c-0.2,0-0.4,0-0.6,0l-0.2,0.4l0.2,0c0.1-0.2,0.4-0.3,0.8-0.3
			c1.1,0,1.9-0.3,1.5,1.2c0,0.1,0,0.3,0.1,0.4c0.1-0.2,0.3-0.5,0.5-0.7c0-0.2,0.1-0.4,0.1-0.6c-0.1,0-0.3,0-0.4,0
			C72.8,59.3,72.8,59.1,72.8,59z M82.1,59h-2.2c-0.7,0.4-0.7,0.5-0.9,0.4l-0.1,0c0,0-0.1,0-0.2-0.1c-0.1,0-0.1,0-0.2-0.1
			c-0.1,0-0.2-0.1-0.3-0.1l0,0l0,0l-0.1,0c-0.4-0.1-0.7-0.1-1.1-0.1c-0.3,0-0.5,0-0.8-0.1h-1.6c0.2,0.3,0.6,0.3,0.9,0.4
			c0.1-0.1,0.1-0.1,0.2-0.2c0.3,0,0.8,0,1.1,0.2l-0.2,0.1c0.1,0,0.2,0,0.4,0.1c0,0.2-0.3,0.7-0.6,0.6c0,0-0.3-0.2-0.3-0.2l-0.1,0.1
			c0.2,0.1,0.3,0.2,0.3,0.6c0.4-0.4,0.8-0.9,1.1-1.3h0.1h0c0.1,0,0.2,0,0.3,0c0.2,0.1,0.4,0.1,0.5,0.2c0.2,0.1,0.4,0.2,0.6,0.4
			c0.7,0.4,1.4-1.4,2.2-0.6c0.3,0.3,0.2,0.1,0.2,0.4c0.4,0.3-0.9,2.1-1.1,2.4c-0.3,0.3-0.5,0.3-0.8,0.7c-0.1,0.2-0.2,0.4-0.2,0.6
			c0,0.2,0,0.4-0.2,0.6l0,0c0.1,0,0.1,0,0.2,0.1c0,0.2,0,0.5-0.2,0.7c-0.1,0.1-0.5,0-0.8,0c-0.5,0-0.6-0.2-0.6-0.5l-0.1-0.1
			c-0.6-0.4-1.4-1.1-1.9-1.7c0-0.1-0.1-0.1-0.1-0.2l-0.1-0.1c-0.1,0.1-0.1,0.3-0.3,0.3l0,0l0.1,0.1c0.5,0.5,0.4,0.8-0.1,1
			c0-0.1,0-0.2,0-0.3c-0.2,0.2-0.3,0.2-0.4,0.2l0,0.1c-0.1-0.1-0.3-0.2-0.4-0.3c0.1,0.1,0.1,0.2,0.1,0.3c0,0,0.1,0.1,0.1,0.1l0,0
			l-0.1,0c-0.1,0-0.2,0-0.2,0c-0.1,0.1-0.1,0.3-0.1,0.4l0.3-0.1c0.1,0,0.2-0.1,0.4-0.1l0,0c0.2,0.2,0.3,0.3,0.3,0.4
			c0.3,0,0.5-0.1,0.6-0.1c-0.1-0.1-0.3-0.3-0.6-0.4c0.2,0,0.3-0.1,0.5-0.1c0.7-0.1,1.1,0.3,1.7,0.5c-0.3,0.1-0.6,0-0.8-0.1
			c-0.2,0.2-0.3,0.2-0.4,0.2c0.1,0.1,0.1,0.2,0.2,0.3c0.3-0.1,0.6-0.1,0.8-0.1c0.2,0.4,0.2,0.8-0.2,1c-0.2-0.1-0.3-0.1-0.5-0.1
			c0.1,0.3,0.1,0.7,0.4,1.2c0.1,0.2,0.3,0.4,0.3,0.7c0.1,0,0.2,0,0.3,0c0-0.4,0.2-0.6,0.3-1l-0.1-0.1c-0.1,0.3-0.2,0.5-0.5,0.4
			c-0.3-0.1-0.3-0.4-0.2-0.6c0.2,0,0.4,0,0.5,0.1c0.1-0.4,0.2-0.7,0.4-0.9c-0.1-0.2-0.2-0.4-0.2-0.6l0.1,0l0.1,0.1
			c0.5,0.2,0.8,0.3,1.1,0.5c0.1,0,0.2,0,0.3,0c0.1,0.1,0,0,0.1,0.1c0.2,0.2,0.4,0.3,0.4,0.5c0.1,0.2,0.2,0.5,0.4,0.9
			c0.1,0,0.2-0.1,0.3-0.1c0.1,0,0.2,0,0.3,0l-0.1-0.4c-0.3-0.1-0.5-0.3-0.7-0.5c-0.2-0.1-0.2-0.3-0.3-0.5c0.1-0.4,0-0.4,0.2-0.7
			c0.3-0.5,0.1-0.4,0.2-0.6c0.1,0.1,0.1,0.2,0.2,0.4c0.2-0.2,0.3-0.4,0.5-0.9c0,0,0.3-0.2,0.3-0.2c0.3-0.1,0.3,0,0.6-0.3
			c0.1-0.1,0.2-0.1,0.3-0.2c-0.1-0.1-0.1-0.2-0.2-0.3c-0.1,0.1-0.2,0.2-0.3,0.2c-0.3,0.2-0.8,0.6-1,0.8c-0.1,0.1-0.2,0.2-0.3,0.2
			c0,0,0.1-0.1,0.1-0.1c0-0.1,0-0.2,0.1-0.3c0-0.1,0.1-0.2,0.2-0.2c0,0,0-0.1,0-0.1c0.1-0.4,0.5-1,0.7-1.2c0.2-0.2,0.7-0.9,0.9-1
			c0-0.2,0.2-0.4,0.3-0.6l0.1-0.2c0-0.1,0-0.1-0.1-0.2c0-0.1-0.1-0.2-0.1-0.3C82.1,59.2,82.1,59.1,82.1,59z M87.2,59h-0.5l0,0
			c-0.3,0.1-0.8,0.4-1.1,0.6l0.3,0.1c0.6-0.4,0.9-0.5,1.3-0.3C87.1,59.3,87.2,59.2,87.2,59z M88.4,59h-0.1c0,0.2,0,0.5-0.1,0.7
			l0.2,0.4l0-0.1c0.1-0.2,0.1-0.3,0.2-0.4c0,0,0,0,0,0C88.6,59.5,88.5,59.2,88.4,59z M90.5,59h-0.2c-0.1,0.2-0.1,0.4-0.1,0.5
			C90.3,59.5,90.4,59.2,90.5,59z M93.2,59h-0.5c-0.1,0.1-0.2,0.1-0.2,0.2c-0.1,0.2-0.1,0.4-0.2,0.6c0.3,0.3,0.2,0.5-0.1,1L92,61
			c-0.2,0.2-0.4,0.3-0.6,0.4c0.1,0.1,0.1,0.3,0,0.5c0.2-0.2,0.4-0.3,0.5-0.4c0.1-0.1,0.2-0.2,0.4-0.3c0.2-0.1,0.2-0.2,0.4-0.2
			c0-0.2,0-0.3,0.1-0.5c0,0-0.1,0-0.1-0.1c0-0.2,0.1-0.6,0.2-0.9C93,59.3,93.1,59.1,93.2,59z M103.9,59h-0.5
			c0.1,0.1,0.2,0.3,0.3,0.4c0.1-0.1,0.2-0.1,0.3-0.2l0-0.1L103.9,59z M106.1,59L106.1,59c-0.2,0.1-0.4,0.2-0.6,0.1
			c-0.5,0.3-0.7,0.2-1.1-0.1H104c0.2,0.2,0.3,0.5,0.4,0.8l0.5,0c0.3-0.3,0.6-0.5,1-0.6C105.9,59.1,106,59,106.1,59z M106.7,59
			L106.7,59c0.1,0.2,0.1,0.5,0.1,0.7C106.9,59.5,106.9,59.3,106.7,59L106.7,59z M106.6,60.1l0.1-0.1L106.6,60.1L106.6,60.1z
			 M101.5,65.2l0.2-0.1c-0.1-0.1-0.2-0.2-0.2-0.2c0,0.2-0.1,0.3-0.2,0.3C101.3,65.2,101.4,65.2,101.5,65.2z M98.7,67.2l0.3-0.2
			c0.1-0.2,0.3-0.4,0.4-0.5c0.1-0.2,0.1-0.4,0.2-0.6c-0.3,0-0.4-0.7-0.4-1c-0.1-0.5,0-0.6,0.3-0.8c0.3-0.2,0.8-0.6,1.2-0.7
			c0-0.1,0-0.3,0.1-0.4c-0.4,0.1-1.7,0.6-2.1,0.3c0,0.1-0.1,0.2-0.2,0.2c0,0.1-0.1,0.1-0.1,0.1c-0.1,0.4-0.1,0.1-0.1,0.5
			c0,0.1,0.1,0.4,0.1,0.5c0.1,0.1,0.2,0.3,0.1,0.5c0.2,0.2,0.4,0.5,0.4,0.8c0.2,0,0.3,0.2,0.4,0.3c0,0.4-0.2,0.7-0.6,0.5
			c0,0.1-0.1,0.2-0.2,0.2C98.6,67,98.7,67.1,98.7,67.2z M95.2,69.1L95.2,69.1c0.1-0.1,0.1-0.1,0.2-0.1c0.1-0.1,0.2-0.1,0.3-0.1
			c0.2-0.1,0.4-0.2,0.6-0.3l-0.1-0.1c-0.3,0.1-0.3,0.4-0.7-0.4c-0.1-0.2-0.3-0.4-0.4-0.7l0,0l0,0c-0.1-0.1-0.1-0.2-0.2-0.3L94.9,67
			l0.1-0.1c-0.3-0.3-0.3-0.5-0.4-0.9c0-0.1,0.1-0.1,0.1-0.2c0.3-0.2,0.8-0.5,1.2-0.6c0.2,0,0.3,0,0.5,0c0.1-0.1,0.2-0.2,0.3-0.4
			c-0.4-0.2-0.5-0.2-0.4-0.7c0.2-0.7,0.4-0.5,0.6-1c0.1-0.2,0.2-0.3,0.3-0.4c0.2,0,0.4,0.2,0.6,0.7c0,0,0-0.1,0-0.1l0,0l0,0
			c0,0,0.1-0.1,0.1-0.1c0-0.1,0.1-0.3,0.1-0.2c0,0,0,0,0,0c0.1-0.2,0.3-0.1,0.3,0c0,0,0,0,0,0.1l0.1,0l0,0c-0.1-0.2-0.1-0.3-0.2-0.5
			l0,0c0.3-0.1,0.6-0.3,0.9-0.4c0-0.1,0-0.2-0.1-0.3c0-0.1,0-0.2,0-0.3c-0.2,0-0.3,0.1-0.4,0.1c-0.2,0.2,0,0.1-0.2,0.2
			c-0.1,0.1-0.3,0.2-0.4,0.2l0,0l0,0c-0.1-0.2-0.1-0.5-0.2-0.7h-0.1v0c-0.1,0-0.6-0.1-0.7-0.2c0,0.1,0,0.3,0.1,0.4
			c0.2,0.2,0.2,0.8,0,0.8c-0.2,0-0.1-0.1-0.2-0.2C96.9,62,96.9,62,96.7,62c-0.2,0.2-0.5,0.5-0.8,0.8c-0.2,0.2-0.4,0.4-0.6,0.6
			c0.1,0.1,0.3,0.4,0.3,0.5c0.2-0.1,0.3-0.3,0.4-0.4c0.2-0.2,0.4-0.4,0.5-0.6c0,0.6-0.4,1.2-0.8,1.7c-0.1,0.2-0.1,0.3-0.4,0.5v0
			c-1,0.6-1.1,1.2-1.9,0.4l-0.2,0c0-0.1-0.1-0.2-0.1-0.3c0-0.2-0.1-0.4-0.3-0.7c-0.1-0.1-0.2-0.1-0.3-0.1c0.2,0.3,0.4,0.7,0.4,1
			l0,0.1l-0.5-0.1l0.2,0.2l0.1,0.1l0.5,0.1c0.3,0.3,0.4,0.6,0.5,1c0.1-0.1,0.4-0.1,0.6-0.2c0.1,0.2,0.3,0.5,0.5,0.9
			c0.2,0.4,0.5,0.5,0.5,0.8C95.3,68.6,95.3,68.8,95.2,69.1L95.2,69.1z M90.5,70.8c0.2-0.1,0.4-0.1,0.6-0.2c0.1-0.1,0.2-0.3,0.4-0.4
			c0.3-0.2,0.7-0.2,0.9-0.1c0.2-0.1,0.4-0.1,0.6-0.2c0-0.1,0-0.1,0.1-0.2c-0.2,0.1-0.4,0.1-0.7,0.1c-0.5,0-0.8,0.5-1.3,0.1l-0.2-0.2
			l-0.5,0.4C90.5,70.4,90.5,70.6,90.5,70.8z M75.4,71.6l0.3,0.1c0.2-0.2,0.3-0.3,0.5-0.1c0.1,0.1,0.1,0.2,0.2,0.2l0.1,0
			c-0.1-0.3-0.1-0.7,0-1.1c-0.1-0.4-0.2-0.7-0.3-1.1c0,0.3-0.1,0.5-0.1,0.8c0.1,0.4,0,0.5-0.4,1C75.6,71.4,75.5,71.5,75.4,71.6z
			 M71.2,70.5l0.2,0.1c0,0,0-0.1,0-0.1c0-0.1,0.1-0.2,0.3-0.3l0-0.1l-0.4,0.3L71.2,70.5z M69.3,69.7l0.2,0.1c0-0.1,0-0.2,0.1-0.4
			c0.1,0,0.3-0.3,0.5-0.3c0-0.1,0.1-0.2,0.2-0.3C69.9,69,69.7,69,69.5,69C69.4,69.2,69.3,69.5,69.3,69.7z M66.8,68.6l0.4,0.2
			l0.2-0.5L66.8,68.6L66.8,68.6z M63.3,66.5l0.4,0.3l0,0l0.1,0l0.1,0l0,0c0.3-0.1,0.7-0.1,1-0.1l0.1-0.1c0.1,0,0.3,0,0.4,0
			c-0.1,0-0.2,0-0.4-0.1l0.3-0.2c-0.2-0.1,0-0.8,0.6-0.6c0.1,0.2,0.1,0.3,0,0.5l0.1,0l0.1,0.2c0.2,0,0.5,0,0.7,0.1l0.1-0.2
			c-0.5-0.1-0.8-0.3-1-0.8l0,0l0,0l0-0.1l-0.1,0c-0.3-0.3,0-0.4,0.2-0.7c-0.2,0.2-0.5,0.3-0.8,0.5c0,0.1,0,0.2,0,0.4l0.3,0l-0.1,0.1
			c-0.1,0.3-0.6,0.6-1.1,0.8l0,0c-0.3,0.1-0.7,0.2-1.1,0.2l-0.1,0.1L63.3,66.5z M58.9,62.9l0.2,0.2l0.1,0C59,63,59,62.9,59,62.8
			L58.9,62.9z M55.9,59.5L55.9,59.5c0.1,0,0.1,0,0.2,0C56,59.5,55.9,59.5,55.9,59.5L55.9,59.5z M55.9,59.5
			c5.9,7.7,15.2,12.6,25.6,12.6c10.4,0,19.7-4.9,25.6-12.6V59H55.9V59.5z"/>
	</g>
</g>
</svg>
