<?xml version="1.0" encoding="utf-8"?>
<!-- Generator: Adobe Illustrator 24.0.2, SVG Export Plug-In . SVG Version: 6.00 Build 0)  -->
<svg version="1.1" id="Layer_1" xmlns="http://www.w3.org/2000/svg" xmlns:xlink="http://www.w3.org/1999/xlink" x="0px" y="0px"
	 width="25px" height="20px" viewBox="0 0 25 20" style="enable-background:new 0 0 25 20;" xml:space="preserve">
<style type="text/css">
	.st0{fill:#C63631;}
</style>
<path class="st0" d="M13.7,14.6l5.1,5.1c0.4,0.4,1.2,0.4,1.6,0l2.1-2.1c0.5-0.5,0.5-1.2,0-1.6l-5.1-5.1c-0.2-0.2-0.4-0.1-0.4-0.1
	l0-0.1l0,0l0,0.1l-0.1,0l0,0c-0.6,0-1.1-0.3-1.4-0.6l-0.1-0.1l2.3-2.3l0.1,0c1.4,0.4,2.9,0,3.9-1c1.2-1.2,1.5-3,0.8-4.6
	c-0.1-0.1-0.2-0.2-0.3-0.2c-0.1,0-0.3,0-0.4,0.1l-2,2l-0.9-0.2l-0.2-0.9l2-2c0.1-0.1,0.1-0.2,0.1-0.4c0-0.1-0.1-0.3-0.2-0.3
	C19-0.3,17.2,0,16,1.2c-1,1-1.4,2.5-1,3.9l0,0.1l-3.2,3.2L7.5,4l0.7-0.7C8.3,3.3,8.3,3.2,8.3,3c0-0.1-0.1-0.2-0.2-0.3L5.7,0.9
	c-0.2-0.1-0.4-0.1-0.6,0L3.8,2.3c-0.2,0.2-0.2,0.4,0,0.6l1.8,2.4c0.1,0.1,0.2,0.2,0.3,0.2c0.1,0,0.3,0,0.3-0.1l0.7-0.7L11.2,9
	L8,12.1l-0.1,0c-1.4-0.4-2.9,0-3.9,1c-1.2,1.2-1.5,3-0.8,4.6c0.1,0.1,0.2,0.2,0.3,0.2c0.1,0,0.3,0,0.4-0.1l2-2l0.9,0.2L7,16.9l-2,2
	c-0.1,0.1-0.1,0.2-0.1,0.4c0,0.1,0.1,0.3,0.2,0.3c1.5,0.7,3.4,0.4,4.6-0.8c1-1,1.4-2.5,1-3.9l0-0.1l2.3-2.3l0.1,0.1
	c0.8,0.8,0.6,1.5,0.6,1.5C13.6,14.4,13.6,14.5,13.7,14.6z M5.9,4.4L4.7,2.7l0.9-0.9l1.7,1.3L5.9,4.4z M17.1,11.8l4.7,4.7
	c0.1,0.1,0.1,0.3,0,0.4L19.8,19c-0.1,0.1-0.1,0.1-0.2,0.1c-0.1,0-0.1,0-0.2-0.1l-4.7-4.7L17.1,11.8z M9.9,14.4
	c-0.1,0.1-0.2,0.3-0.1,0.5c0.4,1.1,0.2,2.4-0.7,3.3c-0.6,0.6-1.4,0.9-2.2,0.9c-0.1,0-0.3,0-0.4,0l-0.3,0l1.7-1.7
	c0.1-0.1,0.2-0.3,0.1-0.4l-0.3-1.4c0-0.2-0.2-0.3-0.3-0.3l-1.4-0.3c-0.1,0-0.3,0-0.4,0.1l-1.7,1.7l0-0.3c-0.1-1,0.2-2,0.9-2.7
	c0.9-0.9,2.2-1.1,3.3-0.7c0.2,0.1,0.3,0,0.5-0.1l7.4-7.4c0.1-0.1,0.2-0.3,0.1-0.5c-0.4-1.1-0.2-2.4,0.7-3.3c0.7-0.7,1.7-1,2.7-0.9
	l0.3,0l-1.7,1.7c-0.1,0.1-0.2,0.3-0.1,0.4l0.3,1.4c0,0.2,0.2,0.3,0.3,0.3l1.4,0.3c0.1,0,0.3,0,0.4-0.1l1.7-1.7l0,0.3
	c0.1,1-0.2,2-0.9,2.7c-0.9,0.9-2.2,1.1-3.3,0.7c-0.2-0.1-0.3,0-0.5,0.1C17.2,7.1,10.1,14.2,9.9,14.4z M13.6,12l1.2-1.2l0.1,0.1
	c0.3,0.3,0.7,0.5,1,0.7l0.2,0.1l-1.7,1.7l-0.1-0.2c-0.1-0.3-0.4-0.7-0.7-1L13.6,12z"/>
</svg>
