<?xml version="1.0" encoding="utf-8"?>
<!-- Generator: Adobe Illustrator 24.0.2, SVG Export Plug-In . SVG Version: 6.00 Build 0)  -->
<svg version="1.1" id="Layer_1" xmlns="http://www.w3.org/2000/svg" xmlns:xlink="http://www.w3.org/1999/xlink" x="0px" y="0px"
	 width="32px" height="40px" viewBox="0 0 32 40" style="enable-background:new 0 0 32 40;" xml:space="preserve">
<style type="text/css">
	.st0{fill:#787B7D;}
</style>
<g>
	<path class="st0" d="M30.8,8.6L23.3,1c-0.1-0.1-0.2-0.2-0.4-0.2H5.3C2.9,0.9,1,2.8,1,5.2v28.9c0,2.4,1.9,4.3,4.3,4.3h21.4
		c2.4,0,4.3-1.9,4.3-4.3V9C31,8.9,30.9,8.7,30.8,8.6z M23.4,2.7l0.2,0.2l5.6,5.6h-2.5c-1.8,0-3.2-1.5-3.3-3.3V2.7z M29.9,34.1
		c0,1.8-1.5,3.2-3.3,3.3H5.3c-1.8,0-3.2-1.5-3.3-3.3v-5.8h27.9V34.1z M30.1,27.3h-0.2H2.1V5.2c0-1.8,1.5-3.2,3.3-3.3h17.1v3.3
		c0,2.4,1.9,4.3,4.3,4.3h3.3V27.3z"/>
	<path class="st0" d="M21.9,11.6l-5.7-3.1c-0.2-0.1-0.3-0.1-0.5,0L10,11.6c-0.2,0.1-0.3,0.3-0.3,0.5v7.6c0,0.2,0.1,0.4,0.3,0.5
		l5.7,3.1c0.2,0.1,0.4,0.1,0.5,0l5.7-3.1c0.2-0.2,0.3-0.4,0.3-0.5v-7.6C22.2,11.9,22.1,11.7,21.9,11.6z M15.5,21.9l-4.6-2.6V13
		l4.6,2.6V21.9z M16,14.6l-4.6-2.5L16,9.6h0.1l4.5,2.5L16,14.6z M21.2,19.3h-0.1l-4.6,2.6v-6.3h0.1l4.6-2.5V19.3z"/>
	<path class="st0" d="M10.2,35.2c-0.2,0-0.4-0.1-0.6-0.2c-0.2-0.1-0.2-0.4-0.3-0.6l-1.1,0.1c0.1,0.5,0.3,0.9,0.6,1.2
		c0.4,0.3,0.8,0.5,1.3,0.5c0.6,0,1-0.2,1.4-0.6c0.4-0.4,0.6-0.8,0.6-1.3c0-0.4-0.1-0.7-0.3-0.9s-0.5-0.4-0.8-0.5
		c0.6-0.3,0.9-0.7,0.9-1.2c0-0.4-0.1-0.7-0.4-1c-0.3-0.4-0.8-0.5-1.3-0.5c-0.3,0-0.6,0.1-0.9,0.2c-0.3,0.1-0.5,0.3-0.6,0.5
		c-0.1,0.2-0.3,0.5-0.3,0.9l1,0.2c0-0.3,0.1-0.5,0.3-0.6C9.8,31,9.9,31,10.1,31c0.2,0,0.4,0.1,0.5,0.2c0.1,0.1,0.2,0.3,0.2,0.5
		c0,0.2-0.1,0.4-0.2,0.6c-0.2,0.1-0.4,0.2-0.7,0.2l-0.1,0.9c0.2-0.1,0.4-0.1,0.5-0.1c0.2,0,0.4,0.1,0.6,0.3c0.2,0.2,0.2,0.4,0.2,0.7
		c0,0.3-0.1,0.5-0.2,0.7C10.6,35.1,10.4,35.2,10.2,35.2z"/>
	<path class="st0" d="M16.5,35.9c0.4-0.1,0.6-0.3,0.8-0.5c0.3-0.3,0.5-0.6,0.6-1c0.1-0.4,0.2-0.8,0.2-1.3c0-0.6-0.1-1-0.2-1.4
		c-0.1-0.4-0.3-0.7-0.6-1s-0.5-0.4-0.9-0.5c-0.3-0.1-0.6-0.1-1.1-0.1h-2.2V36h2.3C15.8,36,16.2,36,16.5,35.9z M14.3,35v-3.9h0.5
		c0.5,0,0.8,0,1,0.1c0.2,0,0.4,0.1,0.6,0.3s0.3,0.3,0.3,0.6c0.1,0.2,0.1,0.6,0.1,1.1c0,0.5,0,0.8-0.1,1.1s-0.2,0.5-0.3,0.6
		s-0.3,0.2-0.5,0.2c-0.1,0-0.4,0.1-0.7,0.1H14.3z"/>
	<path class="st0" d="M21.3,35.1c-0.4,0-0.7-0.1-0.9-0.3c-0.2-0.2-0.4-0.5-0.4-0.9l-1.2,0.1c0.1,0.7,0.3,1.2,0.7,1.5
		c0.4,0.3,1,0.5,1.7,0.5c0.5,0,0.9-0.1,1.3-0.2c0.3-0.1,0.6-0.4,0.8-0.7c0.2-0.3,0.3-0.6,0.3-1c0-0.4-0.1-0.7-0.2-0.9
		c-0.2-0.3-0.4-0.5-0.7-0.6c-0.3-0.1-0.7-0.3-1.3-0.4c-0.6-0.1-0.9-0.3-1.1-0.4c-0.1-0.1-0.2-0.2-0.2-0.4c0-0.2,0.1-0.3,0.2-0.4
		c0.2-0.1,0.5-0.2,0.8-0.2c0.3,0,0.6,0.1,0.8,0.2c0.2,0.1,0.3,0.4,0.3,0.7l1.2-0.1c0-0.5-0.2-1-0.6-1.3S22,30,21.2,30
		c-0.5,0-0.8,0.1-1.2,0.2s-0.6,0.3-0.7,0.6C19.1,31,19,31.3,19,31.6c0,0.5,0.2,0.9,0.5,1.2c0.3,0.2,0.7,0.4,1.4,0.6
		c0.5,0.1,0.8,0.2,1,0.3c0.2,0.1,0.3,0.2,0.4,0.3s0.1,0.2,0.1,0.4c0,0.2-0.1,0.4-0.3,0.6C22,35,21.7,35.1,21.3,35.1z"/>
</g>
</svg>
