<?xml version="1.0" encoding="utf-8"?>
<!-- Generator: Adobe Illustrator 24.0.2, SVG Export Plug-In . SVG Version: 6.00 Build 0)  -->
<svg version="1.1" id="Layer_1" xmlns="http://www.w3.org/2000/svg" xmlns:xlink="http://www.w3.org/1999/xlink" x="0px" y="0px"
	 width="32px" height="40px" viewBox="0 0 32 40" style="enable-background:new 0 0 32 40;" xml:space="preserve">
<style type="text/css">
	.st0{fill:#787B7D;}
</style>
<g>
	<path class="st0" d="M30.8,8.9l-7.6-7.6c-0.1-0.1-0.2-0.2-0.4-0.2H5.3C2.9,1.2,1,3.2,1,5.5v28.9c0,2.4,1.9,4.3,4.3,4.3h21.4
		c2.4,0,4.3-1.9,4.3-4.3V9.3C31,9.2,30.9,9,30.8,8.9z M23.4,3l0.2,0.2l5.6,5.6h-2.5c-1.8,0-3.2-1.5-3.3-3.3V3z M29.9,34.5
		c0,1.8-1.5,3.2-3.3,3.3H5.3c-1.8,0-3.2-1.5-3.3-3.3v-5.8h27.9V34.5z M29.9,27.7H2.1V5.5c0-1.8,1.5-3.2,3.3-3.3h17.1v3.3
		c0,2.4,1.9,4.3,4.3,4.3h3.3V27.7z"/>
	<path class="st0" d="M16,16.8c0.3,0,0.5-0.2,0.5-0.5c0-0.3-0.2-0.5-0.5-0.5c-0.3,0-0.5,0.2-0.5,0.5C15.5,16.5,15.7,16.8,16,16.8z"
		/>
	<path class="st0" d="M22.9,15.7H19v-2c0-0.3-0.2-0.5-0.5-0.5h-2V9.3c0-0.3-0.2-0.5-0.5-0.5c-0.3,0-0.5,0.2-0.5,0.5v3.9h-2
		c-0.3,0-0.5,0.2-0.5,0.5v2H9.1c-0.3,0-0.5,0.2-0.5,0.5c0,0.3,0.2,0.5,0.5,0.5H13v2c0,0.3,0.2,0.5,0.5,0.5h2v3.9
		c0,0.3,0.2,0.5,0.5,0.5c0.3,0,0.5-0.2,0.5-0.5v-3.9h2c0.3,0,0.5-0.2,0.5-0.5v-2h3.9c0.3,0,0.5-0.2,0.5-0.5
		C23.4,15.9,23.2,15.7,22.9,15.7z M18,18.2h-4v-4h4V18.2z"/>
	<path class="st0" d="M9.8,36.2c0.4-0.1,0.6-0.3,0.8-0.5c0.3-0.3,0.5-0.6,0.6-1c0.1-0.4,0.2-0.8,0.2-1.3c0-0.6-0.1-1-0.2-1.4
		c-0.1-0.4-0.3-0.7-0.6-1s-0.5-0.4-0.9-0.5c-0.3-0.1-0.6-0.1-1.1-0.1H6.5v5.9h2.3C9.2,36.3,9.5,36.3,9.8,36.2z M7.7,35.3v-3.9h0.5
		c0.5,0,0.8,0,1,0.1c0.2,0,0.4,0.1,0.6,0.3c0.1,0.1,0.3,0.3,0.3,0.6c0.1,0.2,0.1,0.6,0.1,1.1c0,0.5,0,0.8-0.1,1.1S9.9,34.9,9.8,35
		s-0.3,0.2-0.5,0.2c-0.1,0-0.4,0.1-0.7,0.1H7.7z"/>
	<polygon class="st0" points="14.6,36.3 15.8,31.9 17,36.3 18.2,36.3 19.7,30.4 18.5,30.4 17.6,34.6 16.5,30.4 15.1,30.4 14,34.5 
		13.1,30.4 11.9,30.4 13.3,36.3 	"/>
	<path class="st0" d="M21.5,36.1c0.5,0.3,1,0.4,1.6,0.4c0.5,0,1-0.1,1.4-0.3c0.5-0.2,0.8-0.4,1.1-0.6v-2.4H23v1h1.4v0.8
		c-0.2,0.1-0.4,0.3-0.6,0.4c-0.3,0.1-0.5,0.1-0.8,0.1c-0.5,0-0.9-0.2-1.2-0.5s-0.5-0.9-0.5-1.6c0-0.7,0.2-1.1,0.5-1.5
		c0.3-0.3,0.7-0.5,1.2-0.5c0.3,0,0.6,0.1,0.9,0.3c0.2,0.2,0.4,0.4,0.5,0.7l1.2-0.2c-0.1-0.5-0.4-1-0.8-1.3c-0.4-0.3-1-0.5-1.7-0.5
		c-0.6,0-1,0.1-1.4,0.3c-0.5,0.3-0.9,0.6-1.1,1.1c-0.3,0.5-0.4,1-0.4,1.6c0,0.6,0.1,1.1,0.3,1.6C20.7,35.4,21,35.8,21.5,36.1z"/>
</g>
</svg>
