<?xml version="1.0" encoding="utf-8"?>
<!-- Generator: Adobe Illustrator 24.0.2, SVG Export Plug-In . SVG Version: 6.00 Build 0)  -->
<svg version="1.1" id="Layer_1" xmlns="http://www.w3.org/2000/svg" xmlns:xlink="http://www.w3.org/1999/xlink" x="0px" y="0px"
	 width="32px" height="40px" viewBox="0 0 32 40" style="enable-background:new 0 0 32 40;" xml:space="preserve">
<style type="text/css">
	.st0{fill:#787B7D;}
</style>
<g>
	<path class="st0" d="M30.8,8.9l-7.6-7.6c-0.1-0.1-0.2-0.2-0.4-0.2H5.3C2.9,1.2,1,3.2,1,5.5v28.9c0,2.4,1.9,4.3,4.3,4.3h21.4
		c2.4,0,4.3-1.9,4.3-4.3V9.3C31,9.2,30.9,9,30.8,8.9z M23.4,3l0.2,0.2l5.6,5.6h-2.5c-1.8,0-3.2-1.5-3.3-3.3V3z M29.9,34.5
		c0,1.8-1.5,3.2-3.3,3.3H5.3c-1.8,0-3.2-1.5-3.3-3.3v-5.8h27.9V34.5z M29.9,27.7H2.1V5.5c0-1.8,1.5-3.2,3.3-3.3h17.1v3.3
		c0,2.4,1.9,4.3,4.3,4.3h3.3V27.7z"/>
	<path class="st0" d="M25.4,12.6H11.6c-0.3,0-0.5,0.2-0.5,0.5c0,0.3,0.2,0.5,0.5,0.5h13.8c0.3,0,0.5-0.2,0.5-0.5
		C26,12.8,25.7,12.6,25.4,12.6z"/>
	<path class="st0" d="M6.6,16.1h11.3c0.3,0,0.5-0.2,0.5-0.5s-0.2-0.5-0.5-0.5H6.6c-0.3,0-0.5,0.2-0.5,0.5S6.3,16.1,6.6,16.1z"/>
	<path class="st0" d="M25.4,17.6H15.4c-0.3,0-0.5,0.2-0.5,0.5c0,0.3,0.2,0.5,0.5,0.5h10.1c0.3,0,0.5-0.2,0.5-0.5
		C26,17.8,25.7,17.6,25.4,17.6z"/>
	<path class="st0" d="M21.6,20.6c0-0.3-0.2-0.5-0.5-0.5H6.6c-0.3,0-0.5,0.2-0.5,0.5s0.2,0.5,0.5,0.5H21
		C21.3,21.2,21.6,20.9,21.6,20.6z"/>
	<path class="st0" d="M6.6,13.6h2.5c0.3,0,0.5-0.2,0.5-0.5c0-0.3-0.2-0.5-0.5-0.5H6.6c-0.3,0-0.5,0.2-0.5,0.5
		C6,13.4,6.3,13.6,6.6,13.6z"/>
	<path class="st0" d="M25.4,15.1h-5c-0.3,0-0.5,0.2-0.5,0.5s0.2,0.5,0.5,0.5h5c0.3,0,0.5-0.2,0.5-0.5S25.7,15.1,25.4,15.1z"/>
	<path class="st0" d="M6.6,18.6h6.3c0.3,0,0.5-0.2,0.5-0.5c0-0.3-0.2-0.5-0.5-0.5H6.6c-0.3,0-0.5,0.2-0.5,0.5
		C6,18.4,6.3,18.6,6.6,18.6z"/>
	<path class="st0" d="M25.4,20.1h-1.9c-0.3,0-0.5,0.2-0.5,0.5s0.2,0.5,0.5,0.5h1.9c0.3,0,0.5-0.2,0.5-0.5S25.7,20.1,25.4,20.1z"/>
	<path class="st0" d="M10.3,22.6H6.6c-0.3,0-0.5,0.2-0.5,0.5c0,0.3,0.2,0.5,0.5,0.5h3.8c0.3,0,0.5-0.2,0.5-0.5
		C10.9,22.9,10.6,22.6,10.3,22.6z"/>
	<path class="st0" d="M6.6,11.1h6.3c0.3,0,0.5-0.2,0.5-0.5S13.1,10,12.9,10H6.6C6.3,10,6,10.3,6,10.6S6.3,11.1,6.6,11.1z"/>
	<path class="st0" d="M19.1,22.6h-6.3c-0.3,0-0.5,0.2-0.5,0.5c0,0.3,0.2,0.5,0.5,0.5h6.3c0.3,0,0.5-0.2,0.5-0.5
		C19.7,22.9,19.4,22.6,19.1,22.6z"/>
	<path class="st0" d="M25.4,22.6h-3.8c-0.3,0-0.5,0.2-0.5,0.5c0,0.3,0.2,0.5,0.5,0.5h3.8c0.3,0,0.5-0.2,0.5-0.5
		C26,22.9,25.7,22.6,25.4,22.6z"/>
	<path class="st0" d="M11,35.4c-0.4,0-0.7-0.1-0.9-0.3c-0.2-0.2-0.4-0.5-0.4-0.9l-1.2,0.1c0.1,0.7,0.3,1.2,0.7,1.5
		c0.4,0.3,1,0.5,1.7,0.5c0.5,0,0.9-0.1,1.3-0.2c0.3-0.1,0.6-0.4,0.8-0.7c0.2-0.3,0.3-0.6,0.3-1c0-0.4-0.1-0.7-0.2-0.9
		c-0.2-0.3-0.4-0.5-0.7-0.6c-0.3-0.1-0.7-0.3-1.3-0.4c-0.6-0.1-0.9-0.3-1.1-0.4C10,32.2,9.9,32,9.9,31.9c0-0.2,0.1-0.3,0.2-0.4
		c0.2-0.1,0.5-0.2,0.8-0.2c0.3,0,0.6,0.1,0.8,0.2c0.2,0.1,0.3,0.4,0.3,0.7l1.2-0.1c0-0.5-0.2-1-0.6-1.3c-0.4-0.3-0.9-0.5-1.7-0.5
		c-0.5,0-0.8,0.1-1.2,0.2S9.2,30.9,9,31.1S8.8,31.7,8.8,32c0,0.5,0.2,0.9,0.5,1.2c0.3,0.2,0.7,0.4,1.4,0.6c0.5,0.1,0.8,0.2,1,0.3
		c0.2,0.1,0.3,0.2,0.4,0.3s0.1,0.2,0.1,0.4c0,0.2-0.1,0.4-0.3,0.6C11.7,35.4,11.4,35.4,11,35.4z"/>
	<polygon class="st0" points="15.7,36.3 16.9,36.3 16.9,31.4 18.7,31.4 18.7,30.4 14,30.4 14,31.4 15.7,31.4 	"/>
	<polygon class="st0" points="23.6,35.3 20.7,35.3 20.7,30.5 19.5,30.5 19.5,36.3 23.6,36.3 	"/>
</g>
</svg>
