<?xml version="1.0" encoding="utf-8"?>
<!-- Generator: Adobe Illustrator 24.0.2, SVG Export Plug-In . SVG Version: 6.00 Build 0)  -->
<svg version="1.1" id="Layer_1" xmlns="http://www.w3.org/2000/svg" xmlns:xlink="http://www.w3.org/1999/xlink" x="0px" y="0px"
	 width="15px" height="15px" viewBox="0 0 15 15" style="enable-background:new 0 0 15 15;" xml:space="preserve">
<style type="text/css">
	.st0{fill:#4E555A;}
</style>
<g>
	<path class="st0" d="M12.4,4.2H9.2c0.3-0.4,0.5-0.9,0.5-1.5c0-1.3-1-2.3-2.3-2.3c-1.3,0-2.3,1-2.3,2.3c0,0.6,0.2,1.1,0.5,1.5H2.6
		L0.7,14.5h13.6L12.4,4.2z M7.5,1.3C8.3,1.3,9,2,9,2.8c0,0.8-0.7,1.5-1.5,1.5C6.7,4.2,6,3.6,6,2.8C6,2,6.7,1.3,7.5,1.3z M3.3,5.1
		h8.4l1.6,8.6H1.7L3.3,5.1z"/>
	<polygon class="st0" points="7.5,7.7 6.6,7.7 5.3,9 5.3,7.7 4.6,7.7 4.6,11 5.3,11 5.3,9.9 5.6,9.6 6.6,11 7.5,11 6.1,9.1 	"/>
	<path class="st0" d="M8.8,9.8h0.9v0.4c-0.1,0.1-0.2,0.1-0.3,0.2c-0.1,0.1-0.3,0.1-0.5,0.1c-0.2,0-0.3,0-0.5-0.1
		c-0.2-0.1-0.3-0.2-0.3-0.3C8.1,9.8,8,9.6,8,9.4C8,9.2,8,9,8.1,8.8c0-0.1,0.1-0.2,0.2-0.3c0.1-0.1,0.2-0.1,0.3-0.2
		c0.1,0,0.3-0.1,0.4-0.1c0.1,0,0.3,0,0.4,0.1c0.1,0,0.2,0.1,0.2,0.2c0.1,0.1,0.1,0.2,0.1,0.3l0,0.1l0.6-0.2l0-0.1
		c-0.1-0.2-0.1-0.4-0.3-0.5C10,8,9.8,7.9,9.6,7.8C9.4,7.7,9.2,7.7,9,7.7c-0.3,0-0.6,0.1-0.9,0.2C7.9,8,7.7,8.2,7.5,8.5
		C7.4,8.8,7.3,9.1,7.3,9.4c0,0.3,0.1,0.6,0.2,0.9c0.1,0.3,0.3,0.5,0.6,0.6C8.4,11,8.7,11.1,9,11.1c0.2,0,0.5,0,0.7-0.1
		c0.2-0.1,0.4-0.2,0.6-0.4l0.1,0V9.2l-1.5,0V9.8z"/>
</g>
</svg>
