<?xml version="1.0" encoding="utf-8"?>
<!-- Generator: Adobe Illustrator 24.0.2, SVG Export Plug-In . SVG Version: 6.00 Build 0)  -->
<svg version="1.1" id="Layer_1" xmlns="http://www.w3.org/2000/svg" xmlns:xlink="http://www.w3.org/1999/xlink" x="0px" y="0px"
	 width="15px" height="15px" viewBox="0 0 15 15" style="enable-background:new 0 0 15 15;" xml:space="preserve">
<style type="text/css">
	.st0{fill:#4E555A;}
</style>
<g>
	<path class="st0" d="M14.4,12.8l-1.2-1.2c-0.1-0.1-0.4-0.1-0.5,0c-0.1,0.1-0.1,0.1-0.1,0.2s0,0.2,0.1,0.2l0.6,0.6H2.3V1.6l0.6,0.6
		C2.9,2.3,3,2.3,3.1,2.3c0.1,0,0.2,0,0.2-0.1c0.1-0.1,0.1-0.4,0-0.5L2.2,0.5c-0.1-0.1-0.4-0.1-0.5,0L0.6,1.7c-0.1,0.1-0.1,0.4,0,0.5
		s0.3,0.1,0.5,0l0.6-0.6v11.1H0.8c-0.2,0-0.3,0.2-0.3,0.3s0.2,0.3,0.3,0.3h0.8v0.8c0,0.2,0.2,0.3,0.3,0.3s0.3-0.2,0.3-0.3v-0.8h11.1
		L12.8,14c-0.1,0.1-0.1,0.1-0.1,0.2s0,0.2,0.1,0.2c0.1,0.1,0.2,0.1,0.2,0.1c0.1,0,0.2,0,0.2-0.1l1.2-1.2c0.1-0.1,0.1-0.2,0.1-0.2
		C14.5,12.9,14.5,12.9,14.4,12.8z"/>
	<path class="st0" d="M4.2,9.6L8,11c0,0,0.1,0,0.1,0c0,0,0.1,0,0.1,0L12,9.6c0.1-0.1,0.2-0.2,0.2-0.3V4.6c0-0.1,0-0.1-0.1-0.2
		c0,0,0,0,0,0c0,0-0.1-0.1-0.1-0.1c0,0,0,0,0,0L8.2,2.8c-0.1,0-0.2,0-0.2,0L4.2,4.3c0,0,0,0,0,0C4.1,4.3,4.1,4.3,4,4.4c0,0,0,0,0,0
		C4,4.5,4,4.5,4,4.6v4.7C4,9.4,4,9.5,4.2,9.6z M8.1,5.7L5.2,4.6l2.8-1.1l2.8,1.1L8.1,5.7z M11.5,9l-3.1,1.2V6.3l3.1-1.2V9z
		 M7.7,10.2L4.6,9V5.1l3.1,1.2V10.2z"/>
</g>
</svg>
