<?xml version="1.0" encoding="utf-8"?>
<!-- Generator: Adobe Illustrator 24.0.2, SVG Export Plug-In . SVG Version: 6.00 Build 0)  -->
<svg version="1.1" id="Layer_1" xmlns="http://www.w3.org/2000/svg" xmlns:xlink="http://www.w3.org/1999/xlink" x="0px" y="0px"
	 width="33px" height="33px" viewBox="0 0 33 33" style="enable-background:new 0 0 33 33;" xml:space="preserve">
<style type="text/css">
	.st0{clip-path:url(#SVGID_2_);}
	.st1{fill:#FFFFFF;}
</style>
<g>
	<g>
		<defs>
			<circle id="SVGID_1_" cx="16.5" cy="16.5" r="16.5"/>
		</defs>
		<clipPath id="SVGID_2_">
			<use xlink:href="#SVGID_1_"  style="overflow:visible;"/>
		</clipPath>
		<g class="st0">
			<defs>
				<rect id="SVGID_3_" x="-1.2" y="-1.2" width="35.4" height="35.4"/>
			</defs>
			<clipPath id="SVGID_4_">
				<use xlink:href="#SVGID_3_"  style="overflow:visible;"/>
			</clipPath>
			<g style="clip-path:url(#SVGID_4_);">
				
					<image style="overflow:visible;" width="304" height="303" xlink:href="B3FC53BB.jpg"  transform="matrix(0.1173 0 0 0.1173 -1.3347 -1.3166)">
				</image>
			</g>
		</g>
	</g>
	<g>
		<g>
			<path class="st1" d="M16.5,8c2.8,0,3.1,0,4.2,0.1c1,0,1.6,0.2,1.9,0.4c0.5,0.2,0.8,0.4,1.2,0.8c0.4,0.4,0.6,0.7,0.8,1.2
				c0.1,0.4,0.3,0.9,0.4,1.9c0,1.1,0.1,1.4,0.1,4.2s0,3.1-0.1,4.2c0,1-0.2,1.6-0.4,1.9c-0.2,0.5-0.4,0.8-0.8,1.2
				c-0.4,0.4-0.7,0.6-1.2,0.8c-0.4,0.1-0.9,0.3-1.9,0.4c-1.1,0-1.4,0.1-4.2,0.1c-2.8,0-3.1,0-4.2-0.1c-1,0-1.6-0.2-1.9-0.4
				c-0.5-0.2-0.8-0.4-1.2-0.8c-0.4-0.4-0.6-0.7-0.8-1.2c-0.1-0.4-0.3-0.9-0.4-1.9C8,19.6,8,19.3,8,16.5s0-3.1,0.1-4.2
				c0-1,0.2-1.6,0.4-1.9c0.2-0.5,0.4-0.8,0.8-1.2c0.4-0.4,0.7-0.6,1.2-0.8c0.4-0.1,0.9-0.3,1.9-0.4C13.4,8,13.7,8,16.5,8 M16.5,6.1
				c-2.8,0-3.2,0-4.3,0.1c-1.1,0.1-1.9,0.2-2.5,0.5C9,6.9,8.4,7.3,7.9,7.9C7.3,8.4,6.9,9,6.7,9.7c-0.3,0.7-0.4,1.4-0.5,2.5
				c-0.1,1.1-0.1,1.5-0.1,4.3c0,2.8,0,3.2,0.1,4.3c0.1,1.1,0.2,1.9,0.5,2.5c0.3,0.7,0.6,1.3,1.2,1.8c0.6,0.6,1.2,0.9,1.8,1.2
				c0.7,0.3,1.4,0.4,2.5,0.5c1.1,0.1,1.5,0.1,4.3,0.1c2.8,0,3.2,0,4.3-0.1c1.1-0.1,1.9-0.2,2.5-0.5c0.7-0.3,1.3-0.6,1.8-1.2
				c0.6-0.6,0.9-1.2,1.2-1.8c0.3-0.7,0.4-1.4,0.5-2.5c0.1-1.1,0.1-1.5,0.1-4.3s0-3.2-0.1-4.3c-0.1-1.1-0.2-1.9-0.5-2.5
				c-0.3-0.7-0.6-1.3-1.2-1.8c-0.6-0.6-1.2-0.9-1.8-1.2c-0.7-0.3-1.4-0.4-2.5-0.5C19.7,6.1,19.3,6.1,16.5,6.1L16.5,6.1z"/>
			<path class="st1" d="M16.5,11.2c-2.9,0-5.3,2.4-5.3,5.3s2.4,5.3,5.3,5.3c2.9,0,5.3-2.4,5.3-5.3S19.4,11.2,16.5,11.2z M16.5,20
				c-1.9,0-3.5-1.6-3.5-3.5s1.6-3.5,3.5-3.5s3.5,1.6,3.5,3.5S18.4,20,16.5,20z"/>
			<circle class="st1" cx="22" cy="11" r="1.2"/>
		</g>
	</g>
</g>
</svg>
