<?xml version="1.0" encoding="utf-8"?>
<!-- Generator: Adobe Illustrator 24.0.2, SVG Export Plug-In . SVG Version: 6.00 Build 0)  -->
<svg version="1.1" id="Layer_1" xmlns="http://www.w3.org/2000/svg" xmlns:xlink="http://www.w3.org/1999/xlink" x="0px" y="0px"
	 width="33px" height="33px" viewBox="0 0 33 33" style="enable-background:new 0 0 33 33;" xml:space="preserve">
<style type="text/css">
	.st0{fill:#FFFFFF;}
	.st1{fill:url(#shape_3_1_);}
	.st2{fill:url(#shape_2_1_);}
	.st3{fill-rule:evenodd;clip-rule:evenodd;fill:#FFFFFF;}
</style>
<g id="shape_4_1_">
	
		<image style="overflow:visible;opacity:6.000000e-02;" width="188" height="188" xlink:href="B3FC53BB.png"  transform="matrix(0.24 0 0 0.24 -6 -5.04)">
	</image>
	<g>
		<path class="st0" d="M0.1,33l2.3-8.5C1,22,0.2,19.2,0.2,16.4C0.2,7.3,7.6,0,16.6,0c4.4,0,8.5,1.7,11.6,4.8
			c3.1,3.1,4.8,7.2,4.8,11.6c0,9-7.3,16.4-16.4,16.4c0,0,0,0,0,0h0c-2.7,0-5.4-0.7-7.8-2L0.1,33z M9.1,27.8l0.5,0.3
			c2.1,1.2,4.5,1.9,6.9,1.9h0c7.5,0,13.6-6.1,13.6-13.6c0-3.6-1.4-7-4-9.6c-2.6-2.6-6-4-9.6-4C9.1,2.8,3,8.9,3,16.4
			c0,2.6,0.7,5.1,2.1,7.2l0.3,0.5l-1.4,5L9.1,27.8z"/>
	</g>
</g>
<linearGradient id="shape_3_1_" gradientUnits="userSpaceOnUse" x1="16.4999" y1="32.429" x2="16.4999" y2="0.5714">
	<stop  offset="0" style="stop-color:#20B038"/>
	<stop  offset="1" style="stop-color:#60D66A"/>
</linearGradient>
<path id="shape_3_2_" class="st1" d="M0.6,32.4l2.2-8.2c-1.4-2.4-2.1-5.1-2.1-7.9c0-8.7,7.1-15.8,15.8-15.8c4.2,0,8.2,1.6,11.2,4.6
	c3,3,4.6,6.9,4.6,11.2c0,8.7-7.1,15.8-15.8,15.8c0,0,0,0,0,0h0c-2.6,0-5.2-0.7-7.5-1.9L0.6,32.4z"/>
<linearGradient id="shape_2_1_" gradientUnits="userSpaceOnUse" x1="16.5" y1="33" x2="16.5" y2="-9.094947e-13">
	<stop  offset="0" style="stop-color:#F9F9F9"/>
	<stop  offset="1" style="stop-color:#FFFFFF"/>
</linearGradient>
<path id="shape_2_3_" class="st2" d="M0.1,33l2.3-8.5C1,22,0.2,19.2,0.2,16.4C0.2,7.3,7.6,0,16.6,0c4.4,0,8.5,1.7,11.6,4.8
	c3.1,3.1,4.8,7.2,4.8,11.6c0,9-7.3,16.4-16.4,16.4c0,0,0,0,0,0h0c-2.7,0-5.4-0.7-7.8-2L0.1,33z M9.1,27.8l0.5,0.3
	c2.1,1.2,4.5,1.9,6.9,1.9h0c7.5,0,13.6-6.1,13.6-13.6c0-3.6-1.4-7-4-9.6c-2.6-2.6-6-4-9.6-4C9.1,2.8,3,8.9,3,16.4
	c0,2.6,0.7,5.1,2.1,7.2l0.3,0.5l-1.4,5L9.1,27.8z"/>
<g id="shape_1_3_">
	
		<image style="overflow:visible;opacity:6.000000e-02;" width="145" height="140" xlink:href="B3FC53B9.png"  transform="matrix(0.24 0 0 0.24 -0.84 0.84)">
	</image>
	<g>
		<path class="st3" d="M12.5,9.7C12.2,9,11.9,9,11.6,9c-0.2,0-0.5,0-0.8,0c-0.3,0-0.7,0.1-1.1,0.5c-0.4,0.4-1.4,1.4-1.4,3.4
			c0,2,1.5,4,1.7,4.2c0.2,0.3,2.8,4.5,7,6.2c3.5,1.4,4.2,1.1,4.9,1c0.7-0.1,2.4-1,2.8-1.9c0.3-1,0.3-1.8,0.2-1.9
			c-0.1-0.2-0.4-0.3-0.8-0.5c-0.4-0.2-2.4-1.2-2.8-1.3c-0.4-0.1-0.6-0.2-0.9,0.2c-0.3,0.4-1.1,1.3-1.3,1.6c-0.2,0.3-0.5,0.3-0.9,0.1
			c-0.4-0.2-1.7-0.6-3.3-2c-1.2-1.1-2-2.4-2.3-2.8c-0.2-0.4,0-0.6,0.2-0.8c0.2-0.2,0.4-0.5,0.6-0.7c0.2-0.2,0.3-0.4,0.4-0.7
			c0.1-0.3,0.1-0.5,0-0.7C13.6,12.5,12.8,10.5,12.5,9.7z"/>
	</g>
</g>
</svg>
